<?xml version="1.0" encoding="UTF-8" standalone="no"?>
<!-- Created with Inkscape (http://www.inkscape.org/) -->

<svg
   width="94.633209mm"
   height="61.415623mm"
   viewBox="0 0 94.633209 61.415623"
   version="1.1"
   id="svg5"
   xml:space="preserve"
   xmlns:inkscape="http://www.inkscape.org/namespaces/inkscape"
   xmlns:sodipodi="http://sodipodi.sourceforge.net/DTD/sodipodi-0.dtd"
   xmlns="http://www.w3.org/2000/svg"
   xmlns:svg="http://www.w3.org/2000/svg"><sodipodi:namedview
     id="namedview7"
     pagecolor="#505050"
     bordercolor="#eeeeee"
     borderopacity="1"
     inkscape:showpageshadow="0"
     inkscape:pageopacity="0"
     inkscape:pagecheckerboard="0"
     inkscape:deskcolor="#505050"
     inkscape:document-units="mm"
     showgrid="false" /><defs
     id="defs2"><clipPath
       clipPathUnits="userSpaceOnUse"
       id="clipPath1066"><path
         d="M 0,670 H 1366 V 0 H 0 Z"
         id="path1064" /></clipPath></defs><g
     inkscape:label="Layer 1"
     inkscape:groupmode="layer"
     id="layer1"
     transform="translate(-240.86741,37.043372)"><g
       id="g1062"
       clip-path="url(#clipPath1066)"
       transform="matrix(0.35277777,0,0,-0.35277777,-133.9,37.038407)"><g
         id="g1068"
         transform="translate(1269.2314,84.4366)"><path
           d="M 0,0 C -4.672,-0.921 -10.492,0.341 -14.482,0.072 -10.827,-2.835 -3.778,-3.205 0,0 m -22.498,-2.177 c -2.649,1.994 -4.79,4.501 -8.662,5.248 2.42,-2.066 5.975,-4.383 8.662,-5.248 m 20.581,5.36 C -0.837,3.236 0.844,2.349 1.018,3.767 -0.074,3.68 -1.557,3.987 -1.917,3.183 m -18.775,0.035 c 1.148,-0.035 3.331,-1.167 4.026,0.049 -0.85,0.338 -3.4,1.095 -4.026,-0.049 M -4.25,-3.813 c 12.167,-0.291 23.212,2.802 29.937,8.703 -0.198,0 -0.372,0 -0.551,-0.007 C 15.568,1.769 4.331,0.28 -4.25,-3.813 M -8.916,5.24 c 1.409,0.081 2.681,0.031 3.754,-0.205 0.142,1.793 -3.319,1.018 -3.754,0.205 M 16.579,4.238 c 0.664,0.329 0.962,0.977 0.77,2.144 C 16.846,6.313 16.759,6.667 16.281,6.63 15.921,6.205 15.735,4.279 16.579,4.238 M 8.774,5.746 c 0.49,0.027 0.887,0.18 1.073,0.54 C 9.183,6.245 9.016,6.695 8.482,6.807 8.476,6.345 8.557,5.979 8.774,5.746 m 23.9,-1.312 c 2.004,0.858 3.791,1.948 5.299,3.292 C 35.739,7.086 33.854,6.09 32.674,4.434 M -11.64,8.426 c 0.707,-0.593 2.327,0.196 2.935,0.587 -0.881,-0.292 -2.91,0.54 -2.935,-0.587 m -8.841,-0.642 c 1.203,0.596 3.822,-0.177 4.547,0.863 -1.756,-0.094 -2.928,0.416 -4.821,0.214 -0.018,-0.481 0.063,-0.847 0.274,-1.077 M -32.457,0.655 c -3.313,2.764 -5.069,7.107 -10.814,7.359 -1.763,1.458 -3.667,2.773 -5.684,3.958 4.015,-5.131 10.616,-9.034 16.498,-11.317 m 15.14,12 c 1.011,0.391 1.961,-0.683 2.413,0.022 -0.422,0.62 -2.047,0.769 -2.413,-0.022 m -9.648,-0.403 c 0.787,0.207 1.892,0.093 2.128,0.834 -0.844,-0.146 -0.95,0.465 -1.874,0.242 0.062,-0.509 -0.304,-0.593 -0.254,-1.076 M 14.6,11.715 c 0.745,0.431 1.477,0.856 2.407,1.101 0.044,0.776 -0.08,1.362 -0.565,1.604 -0.247,-1.092 -2.916,-1.222 -1.842,-2.705 m -16.908,1.662 c 0.677,-0.213 1.061,-0.722 1.88,-0.791 0.112,0.711 0.782,0.816 0.776,1.632 -0.937,0.695 -2.5,0.58 -2.656,-0.841 m 0.453,6.432 c -0.081,-0.701 0.372,-0.872 1.085,-0.782 0.044,1.108 -0.34,1.067 -1.085,0.782 m 32.444,0.421 c 0.342,0 0.702,0.013 1.061,0.013 0.342,1.39 -1.334,1.232 -1.061,-0.013 m -83.403,0.528 c -0.9,-0.167 -2.507,0.326 -2.947,-0.304 0.428,-0.952 2.594,-0.425 2.947,0.304 m 1.08,-0.773 c 0.9,0.438 2.482,0.218 2.928,1.099 -0.813,-0.531 -2.612,-0.105 -2.928,-1.099 m 84.688,2.684 c -0.174,0.918 -1.564,0.565 -2.42,0.779 -0.143,-1.247 1.47,-0.67 2.42,-0.779 m -20.098,-0.53 c 0.23,0.837 0.869,1.262 1.042,2.168 -0.85,-0.08 -1.736,-1.467 -1.042,-2.168 m -61.426,1.362 c -0.509,0.099 -0.496,0.766 -1.359,0.521 -0.503,-1.012 1.241,-1.046 1.359,-0.521 m -4.294,0.487 c -0.98,-0.019 -1.967,-0.031 -2.948,-0.037 0.02,-1.487 2.445,-0.429 2.948,0.037 m 75.884,0.434 c 0.577,0.056 0.136,-0.955 0.285,-1.324 1.88,-0.175 2.426,0.499 3.183,1.901 -1.054,1.005 -2.693,0.199 -3.468,-0.577 m -8.346,1.517 c -0.092,0.608 -0.167,1.241 -1.073,1.052 -0.174,-0.912 0.465,-0.984 1.073,-1.052 m -67.563,-0.617 c 0.832,0.22 0.534,-0.726 1.366,-0.512 0.421,0.72 1.333,0.974 1.849,1.619 -1.372,1.117 -2.246,-0.329 -3.215,-1.107 M 40.026,15.258 c 3.531,3.62 6.441,7.095 8.42,11.909 0.23,0.556 1.533,2.693 0.783,1.884 -2.799,-4.675 -5.622,-9.351 -9.475,-12.989 -0.336,0.3 -0.962,0.291 -1.601,0.242 0.255,-2.473 -1.403,-3.054 -2.382,-4.319 1.873,-0.131 2.959,1.942 4.255,3.273 M 17.882,28.917 c 1.899,0.134 1.34,-1.97 0.013,-1.874 2.177,0.065 4.275,0.236 5.881,0.875 -0.62,1.595 -5.137,2.045 -5.894,0.999 m -7.526,-0.099 c 2.054,0.022 3.959,-0.105 5.653,-0.456 -0.156,1.601 -1.657,1.259 -2.961,1.027 -0.074,0.481 0.236,1.34 -0.576,1.067 -0.398,-0.835 -2.184,-0.329 -2.116,-1.638 m -70.002,1.251 c 0.311,0.399 1.136,0.319 1.061,1.088 -0.912,-0.18 -2.5,0.307 -2.947,-0.301 0.614,-0.279 0.881,-0.915 1.886,-0.787 m 76.405,1.783 c 0.341,-0.639 2.501,-1.384 2.959,-0.236 -0.893,0.124 -2.667,1.217 -2.959,0.236 m -5.646,1.002 c -0.906,-0.177 -2.494,0.313 -2.96,-0.31 0.515,-0.748 2.718,-0.695 2.96,0.31 m 19.389,-6.716 c 1.812,0.527 2.215,3.518 4.784,2.472 1.502,1.015 2.439,2.566 3.171,4.319 -3.735,1.716 -6.397,-3.801 -7.955,-6.791 m 11.213,4.964 c 0.633,-0.159 1.93,0.362 2.128,-0.242 0.006,-0.541 -0.726,-0.358 -0.528,-1.081 1.167,-0.123 5.039,1.239 6.441,0.088 1.117,2.177 -0.416,3.573 -0.329,5.091 -2.042,0.294 -2.786,-0.643 -4.021,-1.127 -0.031,0.683 -0.384,1.04 -1.067,1.046 -1.166,-0.996 -1.309,-2.941 -2.624,-3.775 m -24.708,2.096 c 0.739,0.417 0.782,1.518 1.589,1.893 -0.429,0.05 -1.272,1.027 -1.607,0.248 0.744,-0.422 -0.372,-1.216 0.018,-2.141 m -78.291,-0.471 c 1.465,-0.183 2.066,0.45 3.475,0.313 -0.298,0.993 0.67,0.77 0.515,1.613 -0.968,-0.008 -1.942,-0.021 -2.954,-0.028 0.379,-1.327 -0.942,-1.02 -1.036,-1.898 m 82.25,5.075 c -0.905,-0.186 -2.488,0.323 -2.953,-0.303 0.651,-0.605 2.531,-0.707 2.953,0.303 m 1.08,-0.791 c 0.651,-0.093 0.583,0.503 1.34,0.292 -0.087,-1.582 0.744,-0.813 1.092,-1.597 -0.502,-1.167 -0.968,-3.221 -2.649,-2.442 0.074,-0.794 -0.603,-0.841 -0.509,-1.623 3.728,-0.912 3.561,1.995 6.67,1.697 0.378,0.689 0.428,1.709 1.042,2.159 0.186,-0.205 1.502,-0.58 1.626,0.019 -1.638,0.701 -3.606,0.403 -5.38,-0.078 0.192,0.835 -0.279,0.981 -0.273,1.611 1.365,0.242 2.867,0.384 4.548,0.334 -0.819,2.039 -5.857,0.18 -7.507,-0.372 m 20.885,2.957 c 0.725,0.177 2.121,-0.322 2.395,0.294 -0.255,0.832 -2.271,0.569 -2.395,-0.294 m -4.567,0.478 c -0.639,-0.096 -1.328,1.147 -1.874,0.239 0.639,0.083 1.303,-1.151 1.874,-0.239 M 20.662,41.01 c 2.612,-0.76 8.104,-1.433 10.722,-0.39 -3.059,-0.274 -7.905,0.474 -10.722,0.39 m -4.02,-0.301 c 0.359,-0.511 2.146,-0.177 2.127,0.553 -0.664,-0.23 -2.314,0.496 -2.127,-0.553 m -4.561,-0.338 c 1.185,0.093 2.066,0.46 3.487,0.314 -0.273,1.02 -3.481,0.661 -3.487,-0.314 m 1.83,4.04 c 1.073,-0.078 1.874,0.124 1.868,1.11 -0.795,-0.217 -1.551,-0.456 -1.868,-1.11 m 34.039,1.532 c -0.565,0.335 -2.699,0.462 -3.22,-0.052 0.552,-0.345 2.693,-0.475 3.22,0.052 m -4.883,3.94 c 2.42,-0.76 3.86,-2.46 7.254,-1.511 0.179,0.99 -0.466,1.151 -0.292,2.141 -2.42,-0.103 -5.28,0.205 -6.962,-0.63 m -24.143,0.776 c 0.59,-1.26 1.043,-1.521 0.026,-2.693 1.203,-1.97 4.628,-3.825 7.29,-2.588 -0.465,-0.003 -0.893,-0.003 -1.353,-0.018 0.193,0.831 -0.285,0.965 -0.285,1.607 0.745,-0.676 3.35,-0.813 3.202,0.85 -2.848,-0.4 -4.338,0.618 -4.592,2.891 -1.247,0.075 -3.177,0.593 -4.288,-0.049 m 26.749,5.15 c 0.72,0.195 1.036,0.76 1.036,1.631 -0.434,-0.012 -0.881,-0.022 -1.334,-0.022 0,-0.629 0.466,-0.766 0.298,-1.609 m -22.529,0.254 c -0.062,0.772 -1.353,1.678 -1.893,1.045 0.739,-0.245 0.534,-1.445 1.893,-1.045 m 33.22,2.302 c 0.006,-0.267 0.006,-0.531 0.012,-0.801 0.335,-0.304 0.95,-0.285 1.614,-0.251 -0.099,0.825 -1.16,1.461 -1.626,1.052 m -18.788,1.371 c 0.67,0.065 1.445,1.403 1.049,1.623 -0.317,-0.574 -1.434,-0.351 -1.049,-1.623 M 11.82,61.008 c 0.472,-0.599 2.054,-0.069 2.947,-0.223 0.367,1.532 -2.984,1.418 -2.947,0.223 m 18.229,-0.313 c 0.783,0.229 1.546,0.462 1.881,1.114 -0.751,-0.196 -0.559,0.533 -1.098,0.53 0.005,-0.807 -0.671,-0.934 -0.783,-1.644 m 7.49,2.261 c 0.645,-0.102 0.577,0.5 1.334,0.286 0.161,-0.478 -0.292,-1.586 0.292,-1.604 0.08,0.695 0.787,0.819 0.787,1.616 -0.8,-0.022 -2.153,0.767 -2.413,-0.298 M 9.363,65.01 C 8.079,64.88 6.391,65.755 5.33,64.948 5.92,64.194 8.798,64.141 9.363,65.01 m 42.049,2.96 c 0.038,-0.419 -0.08,-1.005 0.274,-1.071 0.961,1.247 3.015,-1.228 2.947,0.572 -1.005,0.486 -2.116,0.775 -3.221,0.499 M 33.729,67.731 c 1.521,0.189 3.748,-0.304 4.814,0.341 -1.178,0.447 -4.137,1.055 -4.814,-0.341 m -9.934,0.415 c 1.899,0.351 5.163,-0.607 6.162,0.618 -1.936,-0.329 -5.113,0.555 -6.162,-0.618 m -39.94,-0.521 c -0.26,1.002 -2.165,0.329 -3.226,0.5 0.204,-1.164 2.724,-1.964 3.226,-0.5 m 12.584,1.502 c -0.534,0.108 -2.004,0.639 -2.427,-0.031 0.671,-0.149 2.352,-0.816 2.427,0.031 m 24.645,1.66 c 0.776,-0.478 0.85,-0.422 1.861,-0.245 -0.03,0.509 -0.186,0.899 -0.533,1.066 -0.119,-0.595 -1.471,0.023 -1.328,-0.821 m -9.127,-0.106 c 0.713,0.034 2.668,0.202 1.88,0.817 -0.341,-0.565 -1.632,-0.187 -1.88,-0.817 m 16.883,1.008 c -0.639,-0.121 -0.596,0.488 -1.34,0.261 -0.242,-1.005 1.327,-1.055 1.34,-0.261 m 3.487,0.317 c -0.025,-1.607 3.984,-1.815 4.834,-0.742 -0.664,0.804 -1.626,-0.35 -2.687,-0.043 0.39,0.956 -1.049,1.021 -2.147,0.785 m -76.69,-0.183 c 0,-1.436 1.408,-0.338 1.613,0.288 -0.826,0.189 -0.98,-0.288 -1.613,-0.288 m 41.838,-0.264 c 2.563,0.19 4.641,-0.127 6.967,-0.189 0.125,2.795 -5.614,0.89 -6.967,0.189 m -47.727,-0.074 c 0.807,-0.251 1.595,-0.54 2.42,-0.785 0.038,0.763 -0.081,1.368 -0.559,1.61 -0.322,-0.565 -1.612,-0.199 -1.861,-0.825 M 24,73.238 c -0.205,-1.288 2.208,-0.872 2.414,-0.239 -0.478,1.008 -1.366,0.158 -2.414,0.239 m 17.956,-0.044 c 0.211,-0.047 0.311,-0.22 0.267,-0.521 1.192,0.521 2.687,0.738 3.487,1.654 -1.421,-0.215 -2.873,-0.386 -3.754,-1.133 M 35.001,72.04 c 0.149,1.384 1.539,1.139 2.407,0.571 -0.44,1.079 -1.47,1.566 -2.699,1.852 0.174,-0.738 -0.31,-2.141 0.292,-2.423 m -16.362,0.329 c -0.689,0.378 -0.534,1.62 -1.353,1.861 0.088,-0.828 0.795,-2.422 1.353,-1.861 m -51.797,3.897 c 0.714,-0.497 2.228,-0.019 2.942,0.3 -0.702,0.509 -2.483,0.27 -2.942,-0.3 m 4.046,-0.23 c 1.073,-0.17 3.636,0.506 4.802,1.138 -1.594,-0.384 -4.387,0.397 -4.802,-1.138 M -42.26,75.875 c 0.465,0.149 1.104,0.149 1.327,0.552 -0.514,0.115 -0.688,0.564 -1.339,0.521 0,-0.36 0,-0.713 0.012,-1.073 m -10.486,0.667 c 0.999,0.012 1.967,0.024 2.972,0.034 -0.18,1.02 -2.897,0.828 -3.226,0.76 0.304,-0.031 0.272,-0.413 0.254,-0.794 m 100.541,1.83 c -0.217,0.956 -0.707,1.62 -1.365,2.116 0.23,-0.909 0.577,-1.74 1.365,-2.116 m -94.671,0.388 c 0.217,-0.053 0.334,-0.22 0.291,-0.528 0.819,-0.195 0.962,0.292 1.602,0.292 -0.156,0.469 -0.156,1.095 -0.553,1.334 -0.075,-0.735 -1.123,-0.496 -1.34,-1.098 m 10.423,3.084 c 1.136,0.22 3.183,-0.444 3.488,0.583 -1.13,-0.227 -3.19,0.456 -3.488,-0.583 m 11.536,0.415 c -0.795,0.289 -1.031,1.127 -2.172,1.04 -1.148,-1.338 1.582,-2.256 2.172,-1.04 m 65.124,1.914 c -0.825,-0.207 -0.528,0.726 -1.347,0.518 -0.198,-0.959 1.155,-1.542 1.347,-0.518 M -43.681,81.76 c -1.154,-0.447 -1.793,1.03 -2.152,0.499 0.433,-0.384 0.576,-1.036 0.57,-1.874 0.577,0.14 1.44,0.655 1.607,-0.241 0.155,-0.863 -0.174,-1.245 -0.242,-1.871 0.943,-0.056 0.862,0.909 1.582,1.091 -0.142,0.835 -0.807,1.167 -0.825,2.129 0.62,0.277 1.303,0.49 2.141,0.571 0.365,-0.618 0.304,-1.682 1.364,-1.598 -0.086,1.213 1.018,1.304 1.57,1.889 -2.457,-0.332 -4.535,1.142 -5.646,1.278 0.869,-0.077 0.589,-1.69 0.031,-1.873 m 63.257,2.95 c 0.912,-0.31 2.01,-0.465 3.195,-0.497 0.373,1.791 -3.338,2.144 -3.195,0.497 m 14.438,1.269 c -0.204,-0.76 0.392,-0.701 0.298,-1.353 -0.837,0.022 -1.489,-0.139 -1.88,-0.549 1.521,0.1 2.693,0.549 4.015,0.86 -0.354,0.428 0.074,1.697 -0.819,1.591 -0.273,-0.446 -1.136,-0.307 -1.614,-0.549 m -9.108,0.419 c 0.198,-1.998 2.792,-3.183 4.3,-1.557 -1.136,0.76 -2.686,2.116 -4.3,1.557 m 21.735,-0.797 c 0.484,1.414 2.209,-0.134 3.202,0.046 -0.292,1.585 -3.245,1.896 -4.579,1.542 0.341,-0.661 0.8,-1.179 1.377,-1.588 m -15.567,1.138 c 0.08,-0.887 1.538,-0.4 2.413,-0.518 -0.627,1.756 1.198,1.123 1.582,1.905 -1.34,-0.45 -3.419,-0.189 -3.995,-1.387 m -70.542,0.434 c 1.129,0.475 1.557,1.657 2.395,2.438 -1.073,-0.449 -2.997,-1.219 -2.395,-2.438 m 7.47,3.85 c 1.955,-0.35 4.133,-1.16 5.095,-0.201 -0.329,0.974 -8.929,0.868 -5.095,0.201 m 65.163,-0.22 c 0.31,0.723 0.763,1.362 0.769,2.414 -1.105,0.102 -1.006,-0.978 -1.874,-1.105 -1.464,0.844 -4.169,1.859 -6.435,0.999 2.687,-0.59 5.052,-1.526 7.54,-2.308 m 10.15,2.252 c 1.52,0.643 2.203,-0.977 2.687,-0.502 -0.385,0.325 -0.627,1.014 -0.279,1.337 -0.968,-0.112 -2.078,-0.09 -2.408,-0.835 M -35.77,91.511 c -2.966,-0.373 -7.278,0.573 -9.369,-0.667 1.949,0.573 1.781,-1.061 2.96,-1.297 2.457,0.682 4.851,1.436 7.756,1.722 -0.211,0.915 0.39,1.023 0.26,1.867 -1.775,0.081 -1.21,-0.657 -1.607,-1.625 m -14.748,0.623 c 1.898,0.701 5.199,0.05 6.415,1.412 -1.923,-0.68 -5.305,0.056 -6.415,-1.412 m -5.889,-0.084 c 1.49,0.292 3.215,0.382 4.797,0.593 -0.559,1.117 -4.673,0.837 -4.797,-0.593 m 13.378,0.971 c 0.645,-0.291 2.605,0 2.946,0.844 -1.166,-0.087 -2.686,0.149 -2.946,-0.844 m 72.924,1.474 c 0.881,0.115 1.327,0.646 1.855,1.101 -0.397,0.128 -0.676,0.391 -1.073,0.518 -0.237,-0.561 -0.814,-0.794 -0.782,-1.619 m -86.345,0.233 c 0.986,0.179 2.767,-0.401 2.929,0.573 -0.932,0.407 -2.296,0.078 -2.929,-0.573 m 18.757,1.048 c -0.174,-1.839 1.489,-0.577 2.413,-0.521 -0.08,1.536 -1.315,0.257 -2.413,0.521 M -51.89,95.044 c 1.682,0.202 4.096,-0.292 5.336,0.348 -1.527,0.418 -4.244,0.902 -5.336,-0.348 m 6.441,-0.177 c 1.88,0.183 4.628,-0.447 4.803,1.403 -1.639,-0.441 -4.499,0.316 -4.803,-1.403 m 20.084,1.877 c 0.044,-0.689 0.397,-1.039 1.068,-1.055 -0.546,1.263 1.352,1.474 0.521,2.138 -0.434,-0.472 -0.999,-0.798 -1.589,-1.083 m 50.916,1.989 c 0.074,-0.732 1.328,-0.267 1.601,-0.788 -0.006,-0.466 0.093,-0.828 0.298,-1.064 -1.825,-0.72 -4.263,0.114 -5.919,0.462 0.695,-1.4 2.55,-1.548 3.53,-2.643 1.868,0.812 3.922,1.461 4.238,3.803 -2.085,-0.648 -2.705,1.375 -3.748,0.23 m -56.587,-0.199 c 1.459,-0.4 3.264,-0.44 4.579,-0.999 0.236,0.568 0.8,0.791 0.782,1.61 -1.465,-0.908 -4.672,0.497 -5.361,-0.611 m -18.49,-0.226 c 2.582,0.695 9.394,-0.481 9.916,1.194 -1.906,-0.71 -8.073,0.453 -9.916,-1.194 m 17.659,3.167 c 1.179,0.171 2.066,0.629 2.661,1.384 -1.079,-0.205 -1.538,0.236 -2.413,0.226 -0.329,-0.698 -0.583,-0.806 -0.248,-1.61 m 64.584,2.185 c 0.367,0 0.255,-0.475 0.547,-0.541 0.298,0.512 1.023,0.593 1.328,1.092 -0.77,-0.049 -1.831,0.202 -1.875,-0.551 m -19.836,0.545 c 2.911,-0.996 7.167,-0.608 9.673,-2.029 -1.731,2.119 -6.633,2.945 -9.673,2.029 m -64.349,-0.565 c 0.459,0.428 1.415,0.376 2.135,0.565 0.267,-1.542 2.178,-1.361 3.5,-1.836 0.781,1.706 6.223,1.445 7.767,0.638 0.211,-0.821 -0.713,-0.524 -0.502,-1.34 0.614,0 0.776,0.469 1.601,0.274 0.341,0.679 -0.807,1.107 -0.032,1.355 0.621,0.087 1.037,-0.037 1.353,-0.264 3.184,2.699 10.915,1.13 14.19,2.343 -4.933,0.695 -8.171,1.216 -12.049,-0.965 -0.621,0.27 -0.769,1.03 -1.366,1.321 0.032,-0.676 0.522,-0.831 -0.26,-1.085 -5.448,-0.37 -10.938,-0.497 -16.089,0.071 0.05,-0.357 -0.886,-1.014 -0.248,-1.077 m 81.735,2.666 c 0.695,-0.102 0.825,-0.804 1.626,-0.801 v 0.565 c 0.167,0 0.303,0.031 0.26,0.263 -1.868,-0.152 0.75,1.626 -1.092,1.85 -0.211,-0.671 -0.726,-1.061 -0.794,-1.877 m -1.632,1.839 c -0.069,-0.694 0.385,-0.869 1.086,-0.775 0,0.357 -0.006,0.713 -0.013,1.07 -0.478,0 -0.831,-0.071 -1.073,-0.295 m -69.158,-0.611 c -0.056,-0.506 0.298,-0.589 0.279,-1.064 0.72,0.35 1.644,0.5 1.862,1.35 -0.882,0.058 -1.129,-0.491 -2.141,-0.286 m 60.844,1.583 c -0.379,0.443 -2.588,0.422 -2.947,-0.023 0.372,-0.365 2.742,-1.147 2.947,0.023 M 9.636,106.033 c 0.471,-0.55 0.621,-1.93 1.619,-1.592 0.156,1.285 0.95,1.905 1.577,2.702 -5.231,-0.834 -5.783,4.558 -9.705,4.17 2.371,-1.325 4.834,-3.264 6.509,-5.28 m -16.169,5.158 c 0.962,-1.203 2.972,-2.751 3.015,-3.998 -1.936,0.561 -3.431,1.579 -4.064,3.443 -1.886,-0.449 -3.351,-1.327 -5.355,-1.669 0.267,-0.918 0.776,-1.563 0.583,-2.95 -0.756,-0.235 -1.085,-0.874 -2.152,-0.828 -0.131,-0.472 0.818,-1.101 0.037,-1.34 -1.949,0.605 -2.879,-0.513 -4.276,-1.123 -2.047,0.955 -5.348,-1.037 -6.402,-2.771 2.451,0.584 7.091,3.931 9.909,0.667 -0.664,-0.763 -1.16,-1.706 -2.11,-2.174 -0.838,0.03 -1.179,0.583 -2.166,0.505 0.075,-0.58 0.702,-1.985 0.305,-2.135 -1.019,0.14 -1.49,0.816 -2.7,0.767 -0.235,-1.347 0.137,-3.314 -1.023,-3.769 -0.497,0.121 -0.671,0.567 -1.341,0.511 0.044,-1.11 1.049,-1.272 1.105,-2.386 -0.497,0.047 -0.584,-0.31 -1.067,-0.291 0.589,-1.656 2.14,-2.32 2.724,-3.974 -0.844,0.112 -0.938,-0.509 -1.862,-0.295 -0.59,1.021 -1.799,1.418 -2.984,1.849 -0.379,-1.151 -2.036,-2.621 -3.184,-1.39 -1.203,-0.878 -2.425,-1.694 -4.001,-2.193 -0.515,0.549 -0.565,1.585 -1.639,1.582 0.205,-0.729 -1.272,0.167 -1.054,-0.561 0.751,-2.122 2.326,-3.397 5.671,-2.864 -0.056,0.791 -0.769,1.645 -0.304,2.132 1.675,-0.124 3.264,1.222 4.554,0.599 0.136,-2.067 -4.288,-1.118 -2.91,-3.522 1.694,0.831 2.891,2.134 3.984,3.537 1.42,-0.54 2.692,-1.241 4.821,-1.012 0.273,1.446 -0.336,1.983 -0.553,2.941 0.28,0.596 1.166,0.621 1.855,0.838 0.329,-3.329 -0.521,-5.501 -1.774,-7.272 -0.633,-0.17 -1.961,0.31 -2.141,-0.298 0.758,-0.564 2.407,-0.245 3.221,-0.76 -0.341,-1.433 -0.677,-2.869 -1.018,-4.306 -0.583,0.537 -2.519,0.909 -2.395,-0.561 1.83,-0.906 3.884,0.251 5.088,0.871 2.166,-0.387 3.816,-1.327 6.174,-1.542 0.322,-0.682 -0.813,-1.154 0.279,-1.066 1.166,-0.413 1.247,0.682 2.141,0.831 2.735,0.484 6.75,-2.079 7.768,-0.171 5.838,-1.604 10.088,-0.394 17.981,-1.632 -0.869,2.718 2.476,2.718 2.37,3.779 -0.397,-0.375 -1.588,-0.555 -1.861,-0.301 -0.652,2.77 -0.335,6.146 0.688,8.066 -0.397,1.369 -2.326,2.417 -1.637,3.996 -2.65,0.478 -3.978,2.268 -4.642,4.775 0.348,0.273 0.98,0.266 1.34,0.558 1.663,-1.25 3.103,-4.514 5.665,-3.159 -0.279,0.633 -1.203,-0.586 -1.594,0.249 -0.025,0.447 -0.031,0.9 -0.031,1.334 1.917,0.528 3.09,-1.151 4.566,-0.205 -0.788,0.481 -1.805,0.674 -2.432,1.313 -0.9,-0.016 -0.912,-0.875 -1.855,-0.816 -0.571,0.694 -1.805,0.682 -1.65,2.106 -0.15,1.297 1.544,0.794 1.588,1.905 -1.185,-0.313 -1.334,0.425 -2.153,0.509 -2.879,4.008 -6.757,8.454 -10.852,10.315 0.341,0.003 0.341,-0.741 0,-0.807 -1.334,-0.183 -3.394,0.307 -4.276,-0.319 4.599,-3.316 8.855,-7.021 11.945,-11.913 -0.062,-0.549 -0.72,-0.549 -1.061,-0.813 -4.312,4.356 -9.462,7.836 -13.042,12.968 0.614,0.127 1.371,0.549 1.88,0.019 0.217,1.033 0.682,1.789 1.575,2.165 0.553,-0.081 1.769,-0.86 2.154,-0.236 -2.371,1.337 -6.28,4.285 -9.425,2.292 m -10.709,0.141 c 1.935,-0.95 4.373,-0.727 5.342,1.128 -1.707,-0.024 -3.388,-0.043 -5.082,-0.061 0.043,-0.519 -0.304,-0.59 -0.26,-1.067 m -19.322,0.006 c 3.915,0.669 4.045,-2.557 7.812,-2.045 0.949,1.29 2.357,2.116 3.723,3.003 -3.879,-0.114 -9.127,-0.307 -11.535,-0.958 m 52.274,1.743 c -0.136,-0.406 -0.384,-0.679 -0.515,-1.079 0.472,-0.224 0.677,-0.733 1.62,-0.512 0.484,0.481 -0.236,0.679 -0.025,1.607 -0.707,0.205 -2.196,0.999 -2.692,0.487 0.142,-0.909 1.519,-0.152 1.612,-0.503 m -42.65,0.527 c 0.688,-0.533 2.953,-0.217 1.867,0.835 -0.292,-0.592 -1.756,-0.044 -1.867,-0.835 m 5.087,0.869 c -0.21,-1.849 3.705,-0.611 4.573,-0.205 -0.565,0.072 -0.565,0.711 -1.092,0.785 -0.422,-0.971 -2.439,-0.998 -3.481,-0.58 m -16.883,0.046 c 0,0.445 0.733,0.159 0.782,0.556 -0.403,0.111 -0.248,0.844 -1.073,0.515 0.055,-0.4 -0.081,-0.984 0.291,-1.071 m 4.816,0.6 c 1.513,0.381 3.939,-0.119 4.808,0.858 -1.787,-0.08 -4.083,0.283 -4.808,-0.858 m 7.24,0.372 c 1.346,0.456 3.76,-0.158 4.548,0.856 -1.688,-0.134 -3.866,0.245 -4.548,-0.856 m 19.005,2.116 c 1.359,0.257 3.773,-0.494 4.287,0.592 -1.445,-0.192 -3.666,0.381 -4.287,-0.592 m -12.893,0.639 c -0.037,1.129 -2.048,0.241 -2.953,0.506 0.061,-1.139 2.072,-0.237 2.953,-0.506 m 6.67,2.503 c 0.788,-0.115 0.862,-0.931 1.898,-0.773 0.497,0.513 -0.161,0.481 -0.037,1.329 -0.813,0.015 -1.477,-0.134 -1.861,-0.556 m -0.826,1.598 c 0.702,0.297 1.806,0.183 2.147,0.825 -0.788,-0.201 -1.892,-0.096 -2.147,-0.825 m -41.77,-87.409 c 0.36,-0.795 1.973,0.785 2.153,-0.521 0.503,-1.275 -0.732,-0.865 -1.055,-1.337 0.962,-0.487 2.693,-0.155 3.506,-0.782 0.683,0.652 -0.465,1.697 -0.31,2.693 3.692,-1.92 4.902,-6.394 7.105,-9.834 1.793,1.975 -3.016,2.903 -2.241,6.406 6.006,-1.911 9.922,-5.957 12.752,-11.088 1.01,-0.133 1.501,-0.822 2.692,-0.785 0,-1.024 -1.048,-1.7 0.304,-2.131 0.633,0.161 -0.813,0.403 -0.291,1.328 2.128,0.173 6.471,0.803 6.986,-1.524 0.583,-0.04 0.118,0.971 0.248,1.346 3.276,0.178 6.006,-2.651 8.587,-0.694 1.868,-0.456 3.37,-1.244 4.858,-2.082 3.556,5.625 9.388,9.05 14.867,12.794 1.52,-0.046 3.395,0.252 4.548,-0.208 0.546,0.943 -2.413,1.434 -3.493,0.757 -0.031,2.764 1.979,5.612 4.194,7.033 -0.378,3.869 1.998,7.188 3.897,9.695 -1.62,2.303 0.105,5.817 2.606,6.471 -0.273,0.531 -1.049,0.569 -1.886,0.513 -0.044,2.165 0.087,4.151 0.453,5.907 -1.378,0.399 -2.402,1.147 -4.294,1.02 0.155,0.885 0.769,0.925 0.236,1.871 -4.163,0.891 -9.332,0.754 -12.627,2.522 -2.233,-1.198 -5.38,0.394 -8.314,0.165 -0.497,-0.267 1.085,-0.658 0.825,-1.595 -1.526,-0.376 -2.848,-0.363 -3.772,0.481 0.049,1.039 1.501,0.673 1.588,1.628 -2.817,1.003 -5.485,0.211 -6.943,-1.43 -5.361,5.169 -17.684,3.242 -25.824,5.582 -5.95,-0.028 -12.093,1.302 -19.302,0.809 -0.28,0.717 -0.578,1.402 -0.578,2.417 0.924,0.49 1.291,-0.021 2.407,0.022 -1.494,1.299 -2.909,0.151 -4.56,1.011 -0.906,0.481 -0.962,1.79 -1.905,2.125 -1.955,0.708 -4.008,-0.996 -6.167,0.196 -0.026,5.611 10.139,0.44 13.123,1.237 -0.23,2.513 0.378,4.213 0.18,6.702 1.687,1.179 3.927,-0.732 4.256,1.141 -0.515,0.329 -2.246,-0.434 -3.195,-0.59 -0.385,1.825 -0.683,4.577 1.011,5.104 2.451,-0.902 5.088,0.496 7.763,0.627 2.257,0.12 4.709,-1.108 6.167,0.9 -1.595,1.867 -6.131,-2.113 -8.314,0.152 -1.788,-0.367 -3.308,-1.006 -5.355,-1.133 -0.931,2.867 1.458,4.557 2.345,6.466 1.061,2.404 0.943,5.596 3.921,6.486 1.061,-0.282 1.099,-1.532 2.154,-0.502 -0.069,1.474 -1.198,0.605 -1.887,1.033 0.347,3.624 3.084,4.932 5.007,7.045 4.492,0.242 7.148,-1.104 10.443,0.391 -0.143,0.223 -0.286,0.434 -0.286,0.803 -1.539,0.178 -4.858,-0.194 -7.228,-0.08 0.199,0.81 -0.292,0.968 -0.292,1.592 0.98,0.012 1.961,0.024 2.948,0.04 0.13,2.736 3.127,5.082 5.59,3.831 2.333,1.837 5.87,4.84 9.878,3.342 0.993,-0.097 0.478,1.303 1.328,1.349 0.707,-0.158 1.377,-0.394 1.88,-0.766 1.104,0.711 1.911,2.615 3.456,1.38 0.626,0.72 1.142,1.545 1.588,2.442 1.837,-0.409 2.228,0.186 3.475,0.844 4.821,-0.41 10.548,0.127 13.96,-1.691 0.211,-0.823 -0.254,-0.986 -0.241,-1.625 1.297,-0.302 0.887,1.085 1.867,1.107 5.64,-3.8 16.213,-2.554 20.736,-7.514 -0.763,-0.593 -2.569,0.068 -3.493,0.217 -0.341,-1.321 1.197,-0.791 2.177,-1.032 1.471,-0.389 1.701,-0.714 3.469,0.042 1.105,0.131 0,-0.675 0.006,-1.082 0.422,-0.456 1.577,0.58 2.687,0.31 -0.205,-0.766 0.391,-0.707 0.279,-1.343 -1.365,-0.605 -3.921,-0.059 -5.075,-0.872 2.389,-0.571 5.833,-1.25 7.507,0.36 1.905,-1.663 3.711,-3.413 6.484,-4.207 0.007,-0.618 0.007,-1.247 0.019,-1.858 0.552,-0.618 1.619,-0.714 2.699,-0.785 0.211,-1.266 -0.354,-1.762 -0.775,-2.414 -0.633,-0.003 -1.247,-0.022 -1.88,-0.028 -0.521,-0.462 -0.701,-1.262 -0.77,-2.156 1.57,0.137 3.605,2.125 5.311,3.019 1.316,-0.565 1.8,-1.986 2.476,-3.19 -0.602,-1.082 -2.618,-0.816 -4.294,-0.853 1.315,-0.514 3.059,-1.551 2.197,-3.459 2.109,0.14 1.557,2.886 4.25,2.473 0.118,-0.512 0.775,-0.481 0.565,-1.331 -0.192,-1.061 -1.632,-0.913 -2.675,-1.107 6.912,-0.15 7.589,-6.727 10.344,-11.138 -0.311,-0.322 -0.292,-0.949 -0.261,-1.613 -0.019,-0.934 0.949,-0.835 1.365,-1.325 -0.143,-1.169 -0.962,-1.722 -1.309,-2.69 -0.788,0.087 -0.236,1.57 -0.837,1.862 -0.429,0.065 -0.447,-0.252 -0.789,-0.277 -0.477,-0.871 1.31,-1.725 1.65,-2.664 0.826,0.245 1.161,0.825 2.123,0.298 0.353,-1.186 0.72,-2.33 0.862,-3.739 -0.552,-0.357 -0.645,-1.963 -1.601,-1.089 -0.018,-1.114 1.353,-0.815 2.16,-1.051 0.086,-1.152 -0.1,-2.563 0.316,-3.745 0.347,-0.94 1.433,-1.21 1.905,-2.134 0.862,-1.63 0.596,-4.536 1.172,-6.95 1.211,-5.165 3.258,-7.724 0.956,-12.598 0.348,-0.633 0.869,-1.086 1.099,-1.849 C 54.875,23.91 46.672,3.664 23.082,-1.582 19.433,-4.393 14.643,-6.067 8.656,-6.596 5.689,-8.497 -1.812,-8.233 -6.608,-7.855 c -15.406,1.176 -30.62,6.006 -40.113,13.691 -9.928,8.007 -15.921,19.806 -22.933,31.058 -0.229,0.766 0.366,0.707 0.255,1.356 -2.854,3.049 -1.024,10.904 -2.867,14.975 0.794,1.597 0.999,3.784 1.259,5.921 2.519,-0.359 2.774,-3.982 1.675,-5.891 -0.067,-0.61 0.776,-0.263 0.826,-0.776 0.018,-6.368 -1.055,-13.237 5.261,-13.609 0.063,1.287 0.633,3.577 2.091,4.312 3.14,-1.402 4.393,-4.722 5.734,-7.967 -0.236,-0.211 -0.615,-0.298 -1.074,-0.273"
           style="fill:#333333;fill-opacity:1;fill-rule:evenodd;stroke:none"
           id="path1070" /></g><g
         id="g1072"
         transform="translate(1113.2329,38.4566)"><path
           d="m 0,0 c 0.906,0.276 0.428,-0.84 0.552,-1.346 2.594,-0.14 4.362,0.515 6.962,0.36 C 7.186,1.052 3.09,-0.602 1.62,-0.794 1.086,-0.617 1.762,0.81 0.794,0.546 0.794,0.09 0.05,0.379 0,0 m 11.522,0.683 c 0.373,0.679 1.62,0.54 1.855,1.368 C 12.534,1.974 10.523,1.657 11.522,0.683 M -2.463,3.717 C -0.087,4.139 2.829,4.052 3.953,5.681 1.824,4.996 -1.11,5.138 -2.463,3.717 m 8.004,1.982 c 1.495,0.497 4.07,-0.074 5.1,0.86 -1.297,0.834 -4.07,0.158 -5.1,-0.86 M -3.828,6.115 C -2.811,6.36 -2.109,5.69 -1.687,6.143 -1.7,6.509 -1.576,6.729 -1.42,6.943 -2.284,6.717 -3.686,7.03 -3.828,6.115 m -20.414,1.073 c 0.999,0.177 2.054,0.304 2.687,0.838 -1.092,-0.099 -2.128,-0.208 -2.687,-0.838 M 6.589,8.665 C 7.092,8.728 7.186,8.364 7.669,8.398 7.657,8.771 7.774,9 7.936,9.214 7.266,9.245 6.621,9.245 6.589,8.665 M -12.44,8.141 c 0.843,-0.369 2.748,1.185 2.655,1.656 -0.26,-0.778 -1.129,0.063 -1.607,-0.025 -0.161,-0.722 -0.757,-1.029 -1.048,-1.631 m 37.247,1.564 c 0.7,0.292 1.799,0.18 2.146,0.822 -0.812,-0.199 -1.892,-0.093 -2.146,-0.822 m -2.966,1.56 c -0.069,-0.708 0.378,-0.871 1.079,-0.791 0,0.36 -0.012,0.719 -0.012,1.083 -0.509,0.049 -0.583,-0.314 -1.067,-0.292 M -6.043,10.369 c 2.928,-2.076 7.557,-0.326 9.909,1.203 -4.722,0.087 -6.186,-2.175 -9.909,-1.203 m 10.981,1.225 c 0.714,-0.295 1.155,0.844 1.086,-0.261 0.721,0.183 1.254,0.549 1.595,1.096 C 6.794,12.251 4.691,11.935 4.938,11.594 m -32.158,0.118 c 1.129,0.388 2.804,0.236 3.462,1.12 -1.092,-0.444 -2.792,-0.291 -3.462,-1.12 m 23.832,1.101 c 0.801,0.208 1.892,0.112 2.135,0.838 -0.596,-0.397 -1.998,0.006 -2.135,-0.838 m 3.742,0.866 C 1.948,13.291 3.158,13.635 3.828,14.795 2.668,14.429 0.943,14.6 0.354,13.679 m 20.115,0.254 c 0.212,-0.059 0.304,-0.224 0.273,-0.531 0.9,0.193 2.494,-0.31 2.935,0.307 -0.794,0.364 -1.073,1.211 -1.892,1.585 -0.043,-0.846 -1.434,-0.353 -1.316,-1.361 m -29.503,0.161 c 1.012,0.28 3.276,-0.23 2.668,1.108 -0.496,-0.754 -2.395,-0.137 -2.668,-1.108 m 24.391,1.108 c 0.298,-1.505 1.241,-2.345 1.923,-3.459 0.397,0.745 -0.465,2.15 -0.59,3.217 1.285,0.602 3.451,0.347 4.282,1.395 -1.942,0.302 -3.288,-0.576 -5.615,-1.153 M -4.517,17.1 c 0.714,0.379 2.066,0.103 2.408,0.838 -0.969,-0.124 -2.067,-0.096 -2.408,-0.838 m 71.044,1.45 c 0.825,0.167 2.048,-0.05 2.116,0.837 -0.887,-0.102 -2.309,0.328 -2.116,-0.837 M -5.286,14.948 c 5.9,1.938 11.416,1.383 16.578,4.231 C 6.105,17.436 -1.067,17.616 -5.286,14.948 m 58.132,5.034 c -1.757,-0.248 -4.301,-0.676 -4.301,-1.392 2.228,0.84 5.206,0.933 8.315,0.899 -0.211,1.229 -2.618,0.683 -4.014,0.493 m -37.824,0.314 c 0.236,-1.433 2.122,-0.481 3.226,-0.49 -0.062,1.939 -1.861,0.316 -3.226,0.49 m 37.799,0.76 c 0.999,0.251 2.295,0.217 2.934,0.838 -1.222,-0.035 -2.333,-0.184 -2.934,-0.838 M 49.6,20.743 c 0.733,0.176 2.141,-0.301 2.396,0.297 -0.416,-0.009 -0.137,0.742 -0.516,0.804 -0.316,-0.67 -1.973,-0.031 -1.88,-1.101 m -60.837,-1.852 c 1.247,0.555 3.58,1.43 3.45,2.454 -1.378,-0.602 -3.512,-0.466 -3.45,-2.454 m 37.235,2.618 c 0.471,-0.447 2.289,0.062 2.668,0.58 -0.801,-0.27 -2.724,0.528 -2.668,-0.58 m 34.585,0.726 c 0.54,-0.071 0.54,-0.711 0.806,-1.07 1.533,0.456 3.351,0.632 3.736,2.199 -0.987,0.136 -3.562,-0.4 -4.542,-1.129 m -10.734,0.648 c 0.812,0.218 0.986,-0.255 1.613,-0.238 0.471,1.247 -1.732,0.945 -1.613,0.238 M 29.485,22.628 c 0.732,0.255 2.507,-0.524 2.395,0.575 -0.304,0.673 -2.085,-0.134 -2.407,0.493 0,-0.347 0.006,-0.707 0.012,-1.068 m 29.187,1.18 c 1.073,-0.218 0.267,-1.325 1.098,-1.313 0.813,0.333 -0.298,0.903 -0.025,1.588 0.968,0.128 2.085,0.104 2.414,0.851 -1.403,-0.142 -3.536,0.438 -3.487,-1.126 m 8.072,-1.493 c 1.533,-0.502 3.319,0.491 4.275,1.381 -0.472,0.797 -1.073,1.433 -2.165,1.585 -0.546,-1.135 -1.223,-2.159 -2.11,-2.966 m -82.591,0.531 c 0.609,0.903 2.066,0.996 3.202,1.39 -1.086,0.254 -2.358,0.295 -3.76,0.218 0.012,-0.721 -0.118,-1.571 0.558,-1.608 m 71.565,2.271 c 0.844,-0.015 1.483,0.143 1.862,0.558 -0.354,0 -0.236,0.463 -0.54,0.525 -0.211,-0.602 -1.253,-0.364 -1.322,-1.083 m -79.867,-3.186 c 0.944,-0.025 0.875,0.934 1.601,1.111 -0.502,1.113 -1.03,2.206 -2.19,2.64 -0.112,-1.552 0.13,-2.774 0.589,-3.751 m 83.348,4.294 c 1.006,-0.087 3.487,-0.779 4.008,0.332 -0.806,-0.032 -1.055,0.545 -1.631,0.769 0.353,-1.477 -2.017,-0.31 -2.377,-1.101 m -69.461,-0.087 c 0.266,0.934 -2.01,0.611 -2.154,0.242 0.404,-0.407 1.384,-0.214 2.154,-0.242 m 97.575,2.866 c -0.646,-0.18 -1.955,0.31 -2.16,-0.291 0.41,-0.351 2.147,-0.525 2.16,0.291 M 37.458,27.559 c 1.39,-0.248 3.605,0.84 4.796,1.678 -1.57,-0.608 -4.126,-0.214 -4.796,-1.678 m -54.186,1.188 c 0.62,-0.205 2.123,-1.201 2.141,0.288 -0.528,0.497 -1.669,0.066 -2.141,-0.288 m 76.659,1.238 c 0.857,0.173 2.054,-0.038 2.141,0.837 -0.571,0.627 -1.824,-0.322 -2.141,-0.837 M 36.087,30.76 c 0.775,0.214 1.88,0.094 2.116,0.835 C 37.507,31.303 36.41,31.399 36.087,30.76 M -2.538,30.54 c 0.025,0.744 -0.67,0.763 -1.352,0.788 -0.106,-0.853 0.589,-0.856 1.352,-0.788 m 79.619,1.284 c 0.919,-1.181 3.735,-0.276 4.015,0.865 -1.502,-0.13 -3.444,0.159 -4.015,-0.865 M -1.209,31.62 c 0.626,0.012 0.793,-0.453 1.612,-0.249 0.273,1.052 -1.612,1.061 -1.612,0.249 M -27.48,31.284 c 0.893,0.174 2.481,-0.31 2.934,0.308 -0.844,0.363 -2.394,0.369 -2.934,-0.308 m 11.267,0.137 c 1.433,0.27 3.046,0.378 3.99,1.138 -1.384,-0.328 -3.015,-0.415 -3.99,-1.138 m -7.75,-3.311 c 1.142,-0.272 2.545,-0.272 4.027,-0.216 0.366,0.983 1.328,1.343 1.57,2.435 -0.614,0.546 -0.676,3.074 -1.899,2.122 2.147,-2.665 -2.419,-3.27 -3.698,-4.341 m 60.006,5.334 c 0.912,-0.953 3.338,-0.063 4.282,0.583 -1.614,-0.025 -3.103,-0.158 -4.282,-0.583 m -43.755,2.652 c 0.899,0.006 1.805,0.019 1.601,1.095 -0.907,-0.018 -1.788,-0.028 -1.601,-1.095 m 63.889,-5.342 c -0.298,0.85 -0.633,3.003 0.218,3.481 1.911,-0.432 1.054,1.808 2.935,1.377 0.012,-0.354 0.024,-0.707 0.024,-1.073 0.528,0.019 1.068,0.019 1.607,0.019 -0.068,1.213 -0.353,1.343 0.236,2.165 -1.315,0.096 -2.277,2.001 -3.506,1.284 0.472,-0.236 0.609,-0.834 0.565,-1.594 -0.31,-0.317 -0.949,-0.332 -1.607,-0.295 -0.068,0.471 0.26,1.34 -0.54,1.064 -0.719,-1.158 -2.147,-1.632 -3.195,-2.448 0.484,0 1.551,0.742 1.861,0.016 -0.478,-1.297 0.037,-1.573 0.577,-2.402 -0.515,-0.117 -0.198,-1.042 -1.061,-0.819 -0.974,0 -0.068,1.896 -1.365,1.589 -0.273,-1.216 -0.515,-2.488 -2.103,-2.442 -0.409,1.303 -1.98,1.408 -1.93,3.193 0.956,0.133 2.066,0.102 2.414,0.847 -1.508,-0.568 -3.593,-0.568 -4.821,-1.405 0.378,-1.108 1.812,-0.875 2.426,-1.043 0.211,-0.819 -0.248,-0.984 -0.236,-1.61 0.385,-0.143 1.384,0.335 1.352,-0.258 -0.359,-0.673 0.795,-1.11 0.032,-1.337 -1.384,-0.272 -2.129,1.114 -2.973,0.509 1.124,-3.816 6.069,-1.009 7.484,0.875 1.96,-0.025 3.735,0.074 4.821,0.881 -1.18,-0.084 -1.943,-0.59 -3.215,-0.574 m -83.987,4.812 c 0.298,-0.677 -1.147,-0.947 -0.26,-1.344 1.476,0.789 3.189,1.322 4.815,1.943 0.409,-0.317 0.776,-0.658 1.092,-1.052 0.745,1.567 3.344,-0.15 3.983,1.651 -2.42,1.507 -6.155,-1.214 -9.63,-1.198 m 94.889,2.029 c 1.483,0.155 2.668,0.015 3.239,-0.767 0.093,0.695 0.782,0.822 0.782,1.613 -1.607,-0.049 -3.785,1.31 -4.021,-0.846 m -83.652,0 c 1.663,0.22 3.81,-0.907 4.822,0.329 -1.272,0.366 -4.096,1.097 -4.822,-0.329 m 67.017,1.395 c 0.708,-0.409 2.377,0.501 3.469,0.587 -0.031,0.397 0.093,0.984 -0.273,1.064 0.025,-1.62 -2.755,-0.484 -3.196,-1.651 m -5.392,1.536 c 0.596,-1.47 -1.03,-2.147 -0.484,-2.683 0.664,0.58 2.03,0.471 2.935,0.834 -0.341,0.825 -0.447,1.927 -1.371,2.129 -0.044,-0.391 -0.652,-0.245 -1.08,-0.28 m 2.439,0.035 c 1.098,-0.01 2.178,-0.028 2.923,0.297 0,0.475 -0.211,0.692 -0.54,0.813 -0.454,-0.72 -2.358,0 -2.383,-1.11 m -72.142,-1.474 c 0.968,0.149 1.545,0.617 2.687,0.58 -0.044,0.404 0.086,0.989 -0.267,1.07 -0.583,-0.763 -1.998,-0.725 -2.42,-1.65 m 17.968,1.039 c 1.893,0.391 5.014,0.031 5.063,1.675 -1.433,-0.816 -3.927,-0.589 -5.063,-1.675 m 63.512,2.163 c 0.9,0.176 1.961,0.223 2.42,0.84 -0.348,0 -0.261,0.459 -0.559,0.518 -0.372,-0.679 -1.619,-0.543 -1.861,-1.358 m -91.098,-5.461 c -0.589,2.442 1.303,3.851 0.478,5.631 -0.683,-1.135 -1.452,-4.616 -0.478,-5.631 m 5.846,5.166 c 0.583,0.657 2.394,0.133 2.654,1.11 -1.122,0.041 -3.796,0.18 -2.654,-1.11 m 88.72,1.948 c 0.311,-0.034 0.305,-0.422 0.286,-0.797 0.676,0.388 2.103,0.043 2.122,1.095 -0.441,0.598 -1.905,-0.059 -2.408,-0.298 m -83.36,-0.797 c 1.545,-0.863 3.506,1.327 4.809,0.052 -0.044,0.391 0.074,0.99 -0.286,1.074 -0.831,-1.048 -3.902,0.099 -4.523,-1.126 m 72.893,2.271 c 0.373,-0.727 0.503,-1.647 1.358,-1.855 -0.099,0.896 0.33,2.326 -0.824,2.14 -0.062,-0.214 -0.218,-0.326 -0.534,-0.285 m 9.121,-0.686 c 0.639,0 0.782,0.465 1.601,0.282 0.05,0.509 -0.304,0.59 -0.28,1.073 -0.645,-0.17 -1.954,0.314 -2.14,-0.288 0.54,-0.074 0.54,-0.722 0.819,-1.067 M -8.352,44.398 c 1.173,0.099 2.228,0.308 2.954,0.837 -1.179,-0.095 -2.227,-0.3 -2.954,-0.837 m 52.815,1.744 c 1.092,-0.637 -0.434,-1.285 0.298,-2.675 1.371,0.267 1.65,1.561 3.189,1.663 -0.304,0.86 -1.57,0.742 -1.644,1.849 -0.888,0 -1.402,-0.381 -1.843,-0.837 m 7.768,-0.419 c 1.167,0.012 2.321,0.018 3.481,0.037 0.279,0.698 0.962,1.021 1.067,1.877 -2.016,-0.158 -3.468,-0.844 -4.548,-1.914 m -16.635,0.573 c 0.503,0.053 0.9,0.196 1.074,0.562 -0.422,0.112 -0.236,0.829 -1.074,0.509 z m 29.224,0.649 c 0.367,0.003 0.714,0.003 1.074,0.015 -0.013,0.351 -0.013,0.714 -0.013,1.071 -0.62,-0.09 -1.259,-0.189 -1.061,-1.086 m -3.244,1.04 c 0.651,-0.072 0.192,-1.272 1.104,-1.058 -0.037,0.685 -0.18,1.274 -0.559,1.597 0,-0.359 -0.465,-0.254 -0.545,-0.539 M 40.945,47.711 c 0.844,0.14 0.62,-0.812 1.625,-0.515 -0.08,0.506 0.274,0.583 0.236,1.08 -0.682,-0.115 -1.458,-0.155 -1.861,-0.565 m -55.234,-0.713 c 0.496,-0.348 2.686,-0.639 2.414,0.58 -0.895,-0.099 -1.819,-0.164 -2.414,-0.58 m 63.809,1.359 c 0.8,0.009 1.613,0.028 2.401,0.037 0.062,1.427 -1.973,0.416 -2.401,-0.037 m 18.496,0.512 c 0.261,0.893 -0.385,0.868 -1.086,0.787 -0.08,-0.71 0.565,-0.676 1.086,-0.787 M 59.435,49.3 c 0.335,0.992 -1.613,1.036 -1.887,0.499 0.447,-0.338 0.894,-0.689 1.887,-0.499 M -4.393,48.208 c -1.817,-0.429 -5.336,0.8 -5.869,-0.897 1.228,-0.074 4.603,0.854 6.192,-0.176 -0.323,1.523 1.091,1.383 1.557,2.177 -0.843,-0.158 -1.663,-0.332 -1.88,-1.104 m 39.412,1.576 c 0.006,-0.263 0.006,-0.537 0.006,-0.794 0.398,0.037 0.987,-0.094 1.074,0.272 -0.441,0 -0.155,0.736 -0.539,0.795 -0.075,-0.215 -0.231,-0.31 -0.541,-0.273 m -66.7,-5.144 c 1.75,0.5 1.303,3.131 2.091,4.579 -0.273,-0.003 -0.547,-0.003 -0.807,-0.003 -0.428,-1.554 -0.894,-3.012 -1.284,-4.576 m 13.073,4.467 c 0.993,0.162 2.066,0.295 2.687,0.826 -1.08,-0.1 -2.141,-0.205 -2.687,-0.826 m 61.644,3.742 c 0.986,-0.558 0.18,-1.577 -0.255,-2.16 0.64,0.094 0.993,0.429 1.874,0.29 -0.155,1.033 0.453,1.314 0.236,2.419 -0.695,-0.115 -1.47,-0.158 -1.855,-0.549 m 3.468,0.034 c 1.055,0.211 2.172,0.357 2.948,0.844 -1.223,-0.053 -2.327,-0.196 -2.948,-0.844 M -1.209,52.542 c 0.98,0.002 1.966,0.021 2.934,0.025 0.019,0.964 -2.934,0.71 -2.934,-0.025 m 56.803,2.333 c -0.025,0.592 -1.129,0.105 -1.607,0.248 -0.174,-0.695 2.035,-1.008 1.607,-0.248 m -78.502,-3.686 c 3.251,1.415 9.345,0.062 11.758,2.296 0.403,-1.148 2.32,0.45 2.941,0.837 -4.399,-0.489 -10.833,-1.256 -14.699,-3.133 m 62.947,4.833 c 0.943,-0.034 1.706,0.093 2.128,0.559 -0.937,0.034 -1.712,-0.099 -2.128,-0.559 m 6.949,1.688 c 0.726,0.202 0.553,-0.521 1.068,-0.521 0.136,0.409 0.39,0.689 0.533,1.067 -0.478,-0.235 -1.334,-0.093 -1.601,-0.546 M 27.99,55.315 c -0.242,1.406 -0.441,2.83 -1.664,3.202 0.298,-1.328 0.323,-2.938 1.664,-3.202 M 0.05,58.448 c 0.012,-0.536 0.018,-1.07 0.024,-1.61 0.683,0.119 1.452,0.152 1.862,0.565 C 1.198,57.459 1.322,58.38 0.85,58.731 0.819,58.412 0.435,58.427 0.05,58.448 M 49.923,58.29 c 1.595,0.472 3.661,0.497 4.809,1.397 -1.148,0.872 -3.624,-0.649 -4.809,-1.397 m -16.629,0.593 c 1.378,-0.332 1.223,1.318 -0.018,1.071 0.006,-0.354 0.006,-0.724 0.018,-1.071 m 4.815,0.332 c 0.305,0.589 1.781,0.037 1.88,0.825 -0.75,-0.105 -1.898,0.738 -2.419,-0.028 0.44,0 0.155,-0.747 0.539,-0.797 m -11.534,1.188 c 0.105,0.584 -0.819,1.458 -1.086,0.782 0.509,-0.087 0.037,-1.226 1.086,-0.782 M -0.906,50.128 c -0.149,-1.036 0.689,-1.101 0.825,-1.871 0.838,-0.117 0.931,0.509 1.868,0.302 0.881,0.446 -0.745,1.659 0.515,1.612 2.115,-2.838 -0.478,-7.315 -0.124,-11 -1.57,-0.447 -4.989,-0.367 -4.809,-1.672 0.522,0.384 4.97,1.293 5.913,-0.178 0.366,-5.065 2.302,-8.031 4.697,-11.478 -0.143,-0.562 -0.564,-0.868 -0.793,-1.35 3.164,0.152 5.031,-1.011 6.737,-2.329 1.589,0.161 5.616,1.234 5.386,-1.279 1.16,0.025 1.681,0.661 2.935,0.583 -0.056,0.658 -0.062,1.285 0.248,1.608 3.183,0.654 6.137,2.68 9.35,3.332 0.826,0.183 2.706,-0.726 2.929,0.847 -0.825,0.431 -2.463,-0.599 -3.741,-0.58 -0.304,0.313 -0.304,0.936 -0.28,1.61 4.989,0.397 3.264,7.914 1.191,10.479 1.353,3.642 -3.194,8.308 -2.034,11.758 -1.248,2.792 -4.244,3.782 -6.236,5.82 -0.546,-0.459 -2.681,0.922 -1.905,1.859 1.179,-0.075 1.737,-0.761 2.444,-1.313 0.175,0.922 0.795,1.433 0.23,2.414 -3.326,1.297 -8.513,2.118 -12.626,1.712 1.941,-0.623 4.995,-0.121 5.659,-2.078 1.253,0.555 3.052,0.09 2.972,-1.567 -3.525,0.583 -8.234,3.555 -11.82,1.182 C 7.836,58.479 7.806,59.162 7.011,59.072 6.273,57.676 4.399,57.385 2.482,57.146 2.271,56.374 2.86,56.451 2.773,55.805 c -3.468,-0.524 -5.764,-2.156 -9.356,-2.528 1.358,-0.081 2.327,-0.506 2.438,-1.852 -1.613,-0.205 -1.979,0.868 -2.972,1.306 -0.031,-0.757 -0.471,-1.126 -0.508,-1.886 1.247,-0.537 1.606,-0.757 3.214,-0.503 1.228,2.349 2.562,4.567 6.111,4.644 1.16,-1.069 2.55,-1.92 3.258,-3.444 -1.161,-1.42 -4.207,-1.188 -5.864,-1.414 m 43.328,8.063 c 2.86,0.369 6.006,3.469 9.617,2.538 0.378,0.688 1.619,0.546 1.855,1.355 -4.256,-0.861 -9.778,-0.508 -11.472,-3.893 m 12.831,3.115 c 0.875,0.81 3.065,0.36 3.735,1.387 -1.036,-0.497 -4.083,-0.419 -3.735,-1.387 m -76.361,-4.198 c -1.807,-1.485 -4.077,-2.959 -4.505,-4.883 3.927,4.012 9.357,6.574 14.084,9.829 -4.436,-0.55 -6.942,-2.789 -9.579,-4.946 m 34.504,5.811 c 2.835,-1.269 7.26,-0.902 10.492,-1.752 -0.211,3.788 -8.879,5.254 -10.492,1.752 M -11.013,63.4 c 1.427,-0.059 1.985,0.723 3.48,0.589 -0.229,0.894 -2.649,-0.334 -3.48,-0.589 m 67.016,1.402 c 0.813,0.01 1.614,0.019 2.433,0.031 0.149,1.331 -2.47,0.863 -2.433,-0.031 m -19.035,0.292 c 1.607,0.006 2.376,-0.416 2.94,0.838 -1.017,-0.252 -2.283,-0.236 -2.94,-0.838 M 48.229,64.97 c 0.626,-0.766 3.326,0.524 4.015,1.402 -1.155,-0.636 -3.389,-0.251 -4.015,-1.402 m 13.93,1.78 c -0.317,-1.101 1.862,-1.054 1.88,-0.229 -0.211,0.05 -0.323,0.202 -0.298,0.524 -0.801,0.18 -0.968,-0.285 -1.582,-0.295 m -43.166,0.255 c 0.98,0.189 2.749,-0.413 2.928,0.571 -1.259,-0.134 -2.575,0.76 -2.928,-0.571 m 30.26,2.541 c 0.912,-2.429 3.952,-0.301 5.354,0.601 -2.14,0.131 -3.772,-0.208 -5.354,-0.601 M 21.381,69.189 c 0.708,0.192 0.534,-0.546 1.061,-0.54 -0.061,0.527 0.292,0.602 0.243,1.089 -0.466,-0.161 -1.099,-0.161 -1.304,-0.549 m 39.915,1.049 c 0.856,-0.118 0.751,0.676 1.067,1.085 -0.843,0.103 -1.197,-0.254 -1.067,-1.085 m -24.67,0.747 c 0.112,-0.552 1.421,-1.886 0.044,-2.953 2.525,0.341 3.257,-1.185 4.566,-2.085 1.49,0.425 3.332,0.478 3.202,2.463 -1.675,0.804 -4.815,0.131 -6.72,0.707 -0.142,0.854 0.466,0.959 0.249,1.887 -0.677,0.016 -0.832,0.499 -1.341,-0.019 m -12.868,0.109 c 0.577,-0.868 0.409,-2.482 1.638,-2.665 -0.025,1.328 -0.292,2.41 -0.856,3.214 0.012,-0.443 -0.727,-0.164 -0.782,-0.549 m -8.32,0.686 c -0.497,-0.05 -1.173,-0.249 -2.948,-0.565 -0.056,-0.605 5.137,0.831 2.948,0.565 m 28.963,-1.226 c 4.691,0.267 7.725,1.015 11.243,2.023 0.273,0 0.322,0.468 0,0.539 -3.214,-1.389 -8.321,-0.903 -11.243,-2.562 m 17.119,3.698 c -0.366,0 -0.714,0 -1.074,-0.003 -0.335,-1.387 1.334,-1.232 1.074,0.003 m -45.865,0.757 c 1.017,-0.003 1.842,0.152 2.394,0.555 -1.005,0.04 -1.941,-0.024 -2.394,-0.555 m 37.519,1.015 c 0.788,0.307 1.899,0.275 2.414,0.834 -0.701,-0.149 -3.543,-0.608 -2.414,-0.834 m -11.807,1.194 c 0.347,0 0.726,0.022 1.08,0.022 -0.056,0.487 -0.193,0.89 -0.553,1.045 0.006,-0.524 -0.732,-0.338 -0.527,-1.067 m 3.232,-0.76 c 0.993,-0.18 1.949,-0.351 3.208,-0.229 0.112,0.642 -0.471,0.567 -0.266,1.327 -2.073,-0.477 -2.377,0.822 -3.512,1.294 -0.628,-0.779 1.073,-0.903 0.57,-2.392 m 2.917,2.178 c 1.172,0.021 2.5,0.189 2.965,-0.503 0.354,1.514 3.413,0.385 3.729,1.927 -2.022,0.35 -4.994,-0.605 -6.694,-1.424 m -20.135,2.417 c 0.403,0.052 0.993,-0.078 1.074,0.291 -0.64,-0.127 0.118,1.21 -0.826,0.785 -0.08,-0.357 -0.372,-0.515 -0.248,-1.076 M 40.25,81.49 c 2.63,-0.013 5.175,0.068 6.682,1.157 -2.239,-0.366 -5.063,-0.174 -6.682,-1.157 m -7.533,0.968 c -0.725,-0.165 -2.115,0.322 -2.388,-0.301 0.762,-0.332 1.899,-0.31 2.388,0.301 m -60.83,-2.386 c 1.359,0.493 5.267,1.176 5.081,1.405 -1.651,-0.185 -5.51,-0.936 -5.081,-1.405 m 76.919,2.063 c 2.079,0.112 4.542,-0.186 5.361,1.148 -1.501,-0.652 -4.498,0.13 -5.361,-1.148 m -78.824,0.605 c -2.066,-1.073 -5.423,-0.906 -7.222,-2.246 2.407,1.039 4.348,-0.316 5.658,-1.268 0.577,0.281 -0.385,1.221 -0.025,2.14 0.887,0.092 1.831,0.161 2.395,0.564 -0.651,-0.117 0.15,1.232 -0.806,0.81 m 2.14,-0.518 c 2.439,0.449 4.79,0.989 6.949,1.697 -1.799,0.772 -6.024,0.081 -6.949,-1.697 m 86.581,3 c -0.248,0.838 -1.056,1.086 -1.893,1.3 0.075,-0.993 1.099,-1.023 1.893,-1.3 m -91.96,-1.182 c -0.068,0.773 -1.353,1.666 -1.899,1.037 0.707,-0.283 1.017,-0.953 1.899,-1.037 m -4.827,0.195 c 0.223,0.478 0.98,0.456 1.055,1.093 -0.404,0.127 -0.677,0.381 -1.099,0.54 0.316,-0.705 -0.782,-1.316 0.044,-1.633 M 51.164,87 c -1.787,-0.407 -5.652,-0.748 -7.483,-1.18 -3.028,-0.691 -6.571,-2.738 -9.624,-2.791 6.292,-0.358 13.198,1.917 19.254,3.183 -0.739,0.608 -1.378,0.952 -2.147,0.788 m -69.145,-2.507 c 2.109,0.589 4.269,1.151 5.876,2.23 -2.116,-0.598 -5.219,-0.239 -5.876,-2.23 m 44.214,1.908 c 0.496,0.493 -0.223,0.68 -0.012,1.613 -0.416,-0.043 -0.999,0.071 -1.074,-0.276 0.714,-0.077 0.503,-1.129 1.086,-1.337 m -50.438,2.035 c 1.558,-0.741 3.587,0.155 4.282,1.12 -0.919,-0.5 -1.142,-0.053 -1.88,0.263 -0.547,-0.719 -1.719,-0.803 -2.402,-1.383 m 8.557,2.535 c 0.744,-0.907 3.673,-0.091 4.281,0.85 -1.173,0.512 -3.382,-0.227 -4.281,-0.85 m 55.463,2.584 c -0.062,-1.163 1.49,-0.652 1.372,-1.865 -1.731,-0.089 -2.805,-0.806 -4.536,-0.856 -0.136,0.633 0.466,0.583 0.242,1.337 -1.005,-0.447 -2.643,-0.248 -4.02,-0.313 0.062,-1.815 -1.359,-2.215 -2.383,-2.994 3.834,-0.511 9.028,1.889 13.377,2.588 0.155,-0.475 0.162,-1.105 0.559,-1.313 0.881,1.585 2.556,2.439 5.056,2.464 0.057,-0.934 0.645,-1.341 1.359,-1.596 -0.36,1.167 -0.161,1.499 0.248,2.427 -3.313,-0.366 -6.136,-2.128 -9.623,-1.474 0.459,0.789 0.403,0.856 0.217,1.871 -0.831,0.127 -0.93,-0.481 -1.868,-0.276 m 16.096,-0.068 c 0.037,0.313 0.409,0.298 0.8,0.276 0.068,0.627 -0.074,1.017 -0.54,1.083 -0.31,-0.112 -1.017,-1.086 -0.26,-1.359 M 43.315,93.329 c 2.215,0.657 5.15,0.617 6.677,1.96 -2.011,-0.874 -5.957,0.158 -6.677,-1.96 m -67.83,0.198 c 1.657,0.326 3.723,0.233 4.523,1.396 -1.16,-0.807 -4.554,0.559 -4.523,-1.396 m 9.084,1.455 c 1.173,0.087 1.948,0.583 3.208,0.596 -0.354,1.495 -3.233,0.667 -3.208,-0.596 m 47.423,1.964 c 1.278,-0.617 3.35,0.248 4.293,0.856 -1.347,-0.357 -3.617,0.158 -4.293,-0.856 m -67.825,-0.351 c 2.091,0.72 4.952,0.645 6.398,1.961 -2.532,-0.23 -5.671,-0.795 -6.398,-1.961 m 74.253,1.502 c 0.837,-0.351 1.483,0.806 1.88,0.018 0.595,-0.558 -0.323,-0.794 -0.249,-1.619 4.412,0.009 8.997,2.14 12.304,1.517 0.193,0.804 -0.465,0.766 -0.279,1.598 -2.246,-0.813 -4.17,-1.945 -7.477,-1.713 0.174,0.832 -0.477,0.788 -0.304,1.61 1.173,0.103 2.222,0.305 2.942,0.838 -3.345,-0.363 -6.987,-0.409 -8.817,-2.249 m -16.083,0.056 c 2.01,0.236 3.45,-0.081 4.312,-1.015 0.174,1.272 -0.335,1.834 -0.323,2.945 -1.302,0.446 -2.723,-1.614 -3.487,0.483 -0.657,-0.294 -0.75,-2.047 -0.502,-2.413 m 11.243,1.762 c 0.062,0.307 1.055,1.018 0.242,1.331 -0.31,-0.481 -1.39,-0.221 -1.874,-0.562 -0.174,-0.993 0.484,-1.139 0.31,-2.134 1.583,0.381 3.598,0.372 4.257,1.659 0.98,-0.899 4.188,-0.251 4.256,1.396 -3.127,0.14 -4.765,-1.172 -7.191,-1.69 m -56.314,-0.193 c 2.817,0.671 8.239,0.261 8.544,2.513 -3.177,-0.524 -6.645,-0.754 -8.544,-2.513 m 44.476,2.175 c 0.415,0.05 0.992,-0.078 1.079,0.289 -0.769,-0.06 0.298,1.752 -0.825,1.331 0.204,-0.823 -0.254,-0.987 -0.254,-1.62 m 4.554,0.865 c 0.415,1.7 -1.192,1.316 -2.432,1.31 0.371,-0.89 1.16,-1.328 2.432,-1.31 m 12.856,0.972 c 1.098,-1.148 3.406,-1.04 5.113,-1.536 -0.398,1.697 1.129,1.523 1.302,2.683 -1.414,-0.025 -3.673,-1.507 -6.415,-1.147 m -74.01,0.391 c 0.77,-2.228 4.17,-1.505 6.72,-1.26 -0.707,2.885 -4.368,2.507 -6.72,1.26 m 15.809,0.731 c -2.171,0.562 -3.523,-0.856 -4.529,-2.199 3.251,-0.251 4.697,1.238 5.87,3.025 -0.832,-0.208 -0.534,0.726 -1.353,0.522 -0.347,-0.671 0.615,-1.291 0.012,-1.348 m 63.239,3.494 c -3.506,-0.98 -7.098,-1.895 -9.605,-3.875 -0.763,1.741 -5.212,1.136 -6.447,0.18 0.41,-0.037 0.249,-0.636 0.305,-1.064 2.127,1.843 5.776,0.624 8.295,-0.155 0,0.868 0.124,1.654 0.515,2.15 2.711,0.27 5.38,0.577 7.75,1.179 0,0.791 0,1.637 -0.813,1.585 m -72.632,-1.734 c 1.998,-2.054 5.044,1.07 7.483,1.166 -2.47,0.54 -4.81,-1.076 -7.483,-1.166 m 53.857,2.035 c 0.651,0.224 1.755,1.679 0.769,1.886 -0.087,-0.772 -0.925,-0.856 -0.769,-1.886 m 12.85,1.238 c 1.488,0.052 2.649,0.422 3.729,0.853 -1.111,1.067 -2.625,-0.304 -3.729,-0.853 m -8.848,0.422 c 1.842,0.059 3.629,0.177 5.081,0.599 -0.657,1.488 -3.735,-0.227 -5.081,-0.599 m -6.72,0.986 c 0.577,0.043 0.142,-0.943 0.298,-1.328 0.459,0.239 1.321,0.099 1.588,0.549 -0.49,0.295 -0.577,1.04 -1.086,1.325 0,-0.437 -0.738,-0.161 -0.8,-0.546 m 12.049,1.498 c 0.633,0.168 1.949,-0.318 2.147,0.298 -0.397,0.351 -2.134,0.512 -2.147,-0.298 m 7.756,1.971 c 0.515,0.099 0.534,-0.348 0.82,-0.521 0.247,0.722 1.613,0.347 1.582,1.361 -0.782,-0.307 -1.893,-0.273 -2.402,-0.84 m -52.287,-0.137 c 0.664,0.041 0.831,-0.406 1.347,-0.511 0,0.35 -0.013,0.704 -0.013,1.067 -0.49,-0.149 -1.123,-0.149 -1.334,-0.556 m 28.939,0.375 c 1.396,-0.878 6.801,0.714 6.961,1.44 -2.04,-0.748 -5.1,-0.493 -6.961,-1.44 m -0.012,2.135 c -0.323,0.314 -0.956,0.295 -1.62,0.261 -0.31,-1.412 1.346,-0.59 1.62,-0.261 m 15.543,0.751 c 0.973,0.989 -3.742,-0.465 -4.81,-0.875 1.887,0.016 2.96,0.825 4.81,0.875 m 2.413,-0.515 c 1.805,0.139 3.251,-0.131 4.299,-0.732 -0.21,1.057 -0.21,1.076 -0.03,2.137 -1.886,0.314 -3.096,-0.382 -4.269,-1.405 m 4.815,1.678 c 0.694,-0.071 0.862,0.385 0.775,1.079 -0.347,-0.005 -0.701,-0.015 -1.055,-0.015 -0.068,-0.502 0.292,-0.58 0.28,-1.064 m -46.399,0.471 c -3.828,-2.938 -10.263,-1.749 -14.16,-4.47 1.409,-0.037 2.681,0.053 3.754,0.317 0.143,-0.854 -0.471,-0.953 -0.247,-1.871 1.352,0.096 2.649,0.232 3.474,0.837 -0.391,0.143 -1.371,-0.325 -1.34,0.246 0.006,0.48 -0.075,0.84 -0.286,1.064 2.998,0.964 6.565,1.396 10.176,1.753 -0.012,0.536 -0.012,1.07 -0.019,1.603 -0.862,-0.238 -1.03,0.224 -1.352,0.521 m 2.687,-0.502 c 0.776,0.308 1.545,0.621 2.674,0.577 0.155,0.94 -3.195,-0.307 -2.674,-0.577 m 28.405,0.636 c -0.974,-1.681 -5.014,-0.387 -5.864,-2.218 6.149,0.435 10.778,1.687 16.312,3.164 -2.128,2.991 -5.987,-1.979 -10.448,-0.946 m 15.536,2.091 c 0.534,1.021 -1.228,1.04 -1.352,0.5 0.515,-0.093 0.676,-0.561 1.352,-0.5 M 3.5,123.12 c 0.999,-0.006 1.849,0.131 2.407,0.571 -0.993,0 -1.843,-0.14 -2.407,-0.571 M 67.756,68.162 c 0.521,-0.453 1.737,-0.22 2.171,-0.772 -1.16,-3.391 0.602,-5.755 0.391,-9.649 -0.217,-0.868 0.701,-0.549 0.826,-1.064 0.148,-5.072 1.314,-9.133 3.083,-12.555 -0.857,-5.01 2.836,-6.003 4.691,-9.329 -0.862,-0.118 -1.452,-0.524 -2.401,-0.571 6.223,-0.167 12.676,1.766 20.084,1.341 0.391,-1.524 0.373,-2.849 -0.471,-3.757 -0.869,-0.252 -0.844,0.397 -1.366,0.511 -0.18,-0.824 0.286,-0.977 0.286,-1.604 0.459,-0.35 2.469,0.469 2.705,-0.772 0.23,-0.757 -0.366,-0.698 -0.26,-1.34 -4.703,0.124 -8.681,-0.338 -10.431,-1.734 -0.893,-0.029 -1.786,-0.029 -2.674,-0.04 -1.576,-1.483 -5.38,-0.761 -6.949,-2.246 0.111,-1.698 3.543,0.005 4.033,-1.289 1.222,0.677 2.296,1.483 3.456,2.194 3.86,-0.394 5.901,2.377 9.63,1.189 0.155,-0.909 -2.445,-1.229 -2.098,-3.233 -2.593,-1.536 -6.868,-1.418 -10.145,-2.277 0.814,-0.699 1.887,0.632 3.208,0.307 -0.216,-0.754 0.397,-0.686 0.292,-1.347 -1.253,-0.083 -4.051,-1.939 -4.294,0.233 -0.763,-0.158 -1.402,-0.416 -2.14,-0.567 0.105,-0.891 1.154,0.719 1.346,-0.258 -0.025,-0.373 -0.043,-0.754 0.286,-0.798 0.049,-1.024 -1.105,-0.89 -1.601,-1.365 1.061,-1.905 1.365,-5.981 0.918,-8.562 -1.154,-0.18 -1.104,0.846 -2.153,0.778 -0.465,2.073 -0.744,4.307 -0.893,6.689 -1.428,0.487 -2.432,1.558 -4.846,0.736 -0.614,-0.55 0.391,-1.061 -0.248,-1.611 -4.114,-1.017 -10.176,-0.127 -14.184,-1.244 -0.59,1.297 -3.01,0.723 -3.264,2.364 0.583,1.672 3.574,-0.307 3.742,1.384 -3.879,0.465 -7.322,-2.165 -11.789,-0.682 -0.857,-1.719 -2.327,-2.839 -4.239,-3.54 0.149,2.314 1.813,3.171 3.432,4.064 -0.254,0.918 -2.277,1.448 -1.384,2.661 1.217,0.522 0.491,-0.961 1.105,-1.061 1.16,-0.086 1.265,0.885 1.576,1.63 -1.471,0.393 -4.499,-0.597 -5.374,1.008 -0.167,0.862 0.174,1.25 0.242,1.883 -2.116,2.187 -4.349,-1.952 -6.105,-4.096 -1.731,-2.096 -3.134,-4.07 -4.231,-5.152 0.372,-0.441 0.949,-0.649 0.831,-1.604 C 31.694,11.355 29.509,11.051 28.3,9.742 27.53,8.929 27.604,7.567 26.451,7.042 25.619,6.9 25.594,7.601 25.632,8.377 24.949,8.048 24.335,7.682 23.764,7.266 24.36,6.975 24.391,6.108 24.596,5.401 23.206,5.352 20.823,2.59 20.06,4.539 18.049,3.655 15.996,2.849 14.457,1.533 16.343,1.548 16.952,2.801 18.726,2.907 18.8,2.069 18.26,1.781 18.502,0.767 5.95,-5.488 -17.572,-2.298 -26.085,5.296 c -0.415,1.29 1.216,0.565 1.074,1.607 -0.695,0.394 -2.203,-0.664 -2.96,-1.098 -2.252,1.864 -1.855,5.088 -3.847,7.458 1.068,1.185 2.476,0.772 4.008,1.12 0.019,1.287 -0.905,1.613 -2.152,1.592 -0.907,-0.106 0.707,-1.173 -0.249,-1.35 -3.48,-1.62 -6.533,9.387 -4.467,12.549 -0.255,0.707 -1.322,0.63 -1.626,1.315 0.044,0.941 0.608,1.356 1.328,1.626 -0.857,0.583 -0.471,2.401 -0.589,3.747 -0.192,0.696 -0.881,0.903 -1.086,1.611 -1.117,9.713 7.03,16.272 10.691,22.641 -5.126,-2.833 -6.789,-9.093 -10.282,-13.533 0.267,4.493 2.091,7.502 4.436,9.974 -2.419,-0.233 -4.454,-2.522 -6.111,-4.368 -2.066,-2.286 -4.089,-4.737 -4.449,-8.637 -3.388,-3.595 -5.46,-14.125 -0.837,-17.978 0.105,-0.639 -0.485,-0.583 -0.255,-1.337 3.475,-2.789 6.056,-6.468 8.973,-9.806 -4.834,1.808 -11.325,8.45 -13.577,13.761 -2.289,5.373 0.875,12.006 3.277,16.666 1.724,3.388 3.79,7.498 5.751,9.469 2.588,2.55 6.739,4.396 9.86,6.015 3.666,1.911 7.284,3.369 10.665,5.237 0.552,-0.639 2.979,0.766 5.864,1.675 3.301,1.046 7.489,1.486 10.697,2.827 4.169,-0.19 6.725,1.203 10.169,1.746 -1.47,0.714 -3.363,-0.444 -5.361,-0.072 2.985,3.791 8.414,5.2 13.316,7.143 0.335,0.496 -0.274,1.352 0.223,2.137 1.917,0.717 3.046,0.341 4.046,-1.009 1.383,0.919 0.651,1.294 0.236,2.675 0.074,1.002 1.116,1.02 1.582,1.638 -1.676,7.157 -4.443,14.627 -4.84,22.184 -1.607,0.953 -0.664,3.122 -1.13,4.819 -0.434,1.538 -2.462,2.438 -1.65,3.735 -2.041,0.356 -3.549,1.244 -4.585,2.618 -5.287,-0.856 -10.989,-1.312 -16.356,-2.088 -0.645,-0.257 0.398,-1.023 0.031,-1.864 -2.079,-0.453 -2.972,-2.891 -5.063,-2.489 0.391,-0.601 0.056,-1.904 -1.315,-2.162 2.935,-3.071 5.454,-6.558 6.856,-11.177 -0.062,-0.739 -1.328,-0.31 -1.613,-0.823 0.254,-0.657 1.874,0.103 2.177,-0.506 0.15,-0.967 -0.31,-1.318 -0.533,-1.888 0.571,-0.953 1.644,-1.399 1.657,-2.923 -0.577,-0.937 -1.502,-1.548 -2.935,-1.653 0.626,-0.634 2.625,0.161 2.966,-0.761 0.701,0.726 0.44,2.389 2.122,2.172 -0.615,-4.076 -3.302,-7.309 -6.31,-10.002 -2.557,-2.299 -6.794,-5.165 -10.666,-5.5 -0.397,-0.041 -1.167,0.341 -1.608,0.242 -1.042,-0.217 -2.115,-1.151 -2.934,-1.381 -9.692,-2.664 -19.061,3.031 -27.139,4.744 0.148,1.011 -0.708,1.697 -0.031,2.416 3.505,-0.391 5.019,-2.785 8.617,-3.099 -0.397,1.316 -3.405,2.296 -3.542,4.775 0.583,0.629 1.036,-0.068 1.873,0.031 -0.955,3.651 -3.183,11.311 0.907,13.141 0.446,6.707 6.335,10.405 10.535,14.354 1.377,-0.232 2.129,-0.226 3.494,0.038 0.037,1.04 -1.248,0.701 -1.111,1.874 1.415,0.301 2.004,1.396 3.487,1.644 0.607,0.527 -0.658,1.356 -0.043,1.88 14.674,6.022 32.854,15.043 53.453,13.551 1.595,-0.115 3.903,0.807 3.766,-1.548 -0.912,-0.462 -2.06,0.264 -2.928,-0.592 -0.038,0.694 -0.515,0.945 -0.826,1.346 -2.91,-0.711 -5.311,-2.212 -8.271,-2.531 -0.694,-0.075 -1.662,0.356 -2.42,0.238 -2.947,-0.465 -5.943,-2.959 -9.077,-3.601 -1.402,-0.28 -2.699,0.844 -3.747,-0.841 4.07,-0.878 8.494,0.192 10.43,2.283 0.577,-0.332 1.061,-0.744 1.625,-1.058 2.643,2.333 5.51,1.713 8.265,3.314 4.79,-3.181 8.563,1.954 12.316,2.305 3.115,0.301 5.441,-2.033 8.879,-2.293 -0.62,1.728 -1.625,3.044 -3.003,3.98 -0.49,-0.248 -0.8,-2.022 -1.321,-1.358 -2.216,1.538 0.564,2.624 2.109,2.447 1.551,-0.195 2.525,-2.302 3.518,-2.367 -0.626,-3.049 3.251,-7.241 4.406,-9.329 1.011,0.215 1.29,-0.306 2.14,-0.245 0.745,-0.689 1.129,-1.753 1.651,-2.661 -0.118,2.137 -1.211,4.851 -1.955,7.47 -0.732,2.556 -2.345,5.522 -0.918,7.511 4.318,-3.64 3.685,-12.338 5.609,-18.432 -0.131,-0.576 0.385,-0.499 0.807,-0.521 -1.31,-2.082 1.669,-3.459 0.88,-6.704 4.002,-7.914 5.498,-19.479 7.365,-29.664 0,-0.051 0.503,0.052 0.534,0.002 0.993,-1.758 0.143,-4.681 0.888,-7.228"
           style="fill:#333333;fill-opacity:1;fill-rule:evenodd;stroke:none"
           id="path1074" /></g></g></g></svg>
