<svg width="5.5286mm" height="5.5287mm" version="1.1" viewBox="0 0 5.5286 5.5287" xml:space="preserve" xmlns="http://www.w3.org/2000/svg">
  <defs>
    <clipPath id="clipPath2436">
      <path d="m-1334.4 31.544h1366v-670h-1366z"/>
    </clipPath>
    <clipPath id="clipPath2442">
      <path d="m-1329.9 33.254h1366v-670h-1366z"/>
    </clipPath>
  </defs>
  <g transform="translate(-337.92 -8.9967)">
    <path transform="matrix(.35278 0 0 -.35278 343.43 11.619)" d="m0 0c0.066 0.159 0.066 0.339 0 0.499-0.033 0.08-0.081 0.152-0.142 0.213l-1.958 1.958c-0.255 0.255-0.668 0.255-0.923 0-0.256-0.255-0.256-0.669 0-0.923l0.844-0.845h-3.648c-0.361 0-0.653-0.292-0.653-0.652 0-0.361 0.292-0.653 0.653-0.653h3.648l-0.844-0.845c-0.256-0.255-0.256-0.669 0-0.923 0.127-0.128 0.294-0.191 0.461-0.191s0.334 0.063 0.462 0.191l1.958 1.958c0.061 0.06 0.109 0.133 0.142 0.213" clip-path="url(#clipPath2436)" style="fill:#ffffff"/>
    <path transform="matrix(.35278 0 0 -.35278 341.84 12.222)" d="m0 0c-0.361 0-0.653-0.293-0.653-0.653v-3.265h-2.612v10.448c0 0.288-0.189 0.542-0.465 0.625l-2.268 0.681h5.345v-3.265c0-0.361 0.292-0.653 0.653-0.653s0.653 0.292 0.653 0.653v3.918c0 0.36-0.292 0.653-0.653 0.653h-10.448c-0.023 0-0.044-0.01-0.067-0.013-0.031-3e-3 -0.059-8e-3 -0.088-0.015-0.069-0.018-0.131-0.045-0.189-0.081-0.014-0.01-0.032-0.01-0.045-0.02-6e-3 -4e-3 -8e-3 -0.012-0.013-0.015-0.071-0.057-0.13-0.125-0.174-0.207-9e-3 -0.018-0.011-0.037-0.018-0.055-0.021-0.049-0.044-0.098-0.052-0.153-3e-3 -0.019 3e-3 -0.038 2e-3 -0.056 0-0.013-9e-3 -0.025-9e-3 -0.038v-13.06c0-0.312 0.22-0.579 0.525-0.64l6.53-1.306c0.043-9e-3 0.086-0.013 0.128-0.013 0.15 0 0.296 0.051 0.414 0.148 0.151 0.124 0.239 0.309 0.239 0.505v0.653h3.265c0.361 0 0.653 0.292 0.653 0.653v3.918c0 0.36-0.292 0.653-0.653 0.653" clip-path="url(#clipPath2442)" style="fill:#ffffff"/>
  </g>
</svg>
