<svg width="5.2433mm" height="5.1521mm" version="1.1" viewBox="0 0 5.2433 5.1521" xml:space="preserve" xmlns="http://www.w3.org/2000/svg"><defs><clipPath id="clipPath2339"><path d="m-1057.3 107.14h1366v-670h-1366z"/></clipPath><clipPath id="clipPath2345"><path d="m-1049.7 116.09h1366v-670h-1366z"/></clipPath><clipPath id="clipPath2351"><path d="m-1057.8 121.74h1366v-670h-1366z"/></clipPath><clipPath id="clipPath2357"><path d="m-1049.7 117.14h1366v-670h-1366z"/></clipPath></defs><g transform="translate(-218.06 -40.814)"><path transform="matrix(.35278 0 0 -.35278 220.72 40.814)" d="m0 0c0.101-0.081 0.209-0.154 0.3-0.245 1.016-1.012 2.029-2.026 3.044-3.041 0.037-0.038 0.076-0.074 0.11-0.114 0.131-0.15 0.156-0.321 0.077-0.499-0.08-0.178-0.221-0.28-0.421-0.28-0.506-3e-3 -1.013-1e-3 -1.521-2e-3h-0.174v-0.184c0-1.125 1e-3 -2.25-1e-3 -3.376-1e-3 -0.114-7e-3 -0.233-0.034-0.344-0.085-0.335-0.378-0.575-0.728-0.581-0.531-9e-3 -1.062-0.01-1.593 0-0.4 8e-3 -0.706 0.308-0.75 0.708-8e-3 0.077-0.013 0.154-0.013 0.231-1e-3 1.121-1e-3 2.241-1e-3 3.362v0.184h-0.173c-0.503 1e-3 -1.005-1e-3 -1.507 1e-3 -0.213 1e-3 -0.375 0.114-0.446 0.307-0.06 0.162-0.038 0.314 0.068 0.45 0.036 0.045 0.079 0.085 0.12 0.126 1.018 1.018 2.035 2.036 3.054 3.052 0.091 0.091 0.199 0.163 0.299 0.245z" clip-path="url(#clipPath2339)" style="fill:#ffffff"/><path transform="matrix(.35278 0 0 -.35278 218.06 43.974)" d="m0 0c1.539 0.705 3.078 1.41 4.634 2.122 4e-3 -0.059 0.01-0.1 0.01-0.141 1e-3 -0.304-4e-3 -0.608 2e-3 -0.912 0.01-0.562 0.209-1.047 0.617-1.437 0.375-0.358 0.824-0.55 1.344-0.556 0.541-5e-3 1.082-5e-3 1.623 0 0.949 8e-3 1.77 0.708 1.933 1.644 0.023 0.127 0.03 0.259 0.032 0.388 5e-3 0.286 2e-3 0.571 2e-3 0.855v0.166c1.56-0.715 3.096-1.419 4.666-2.139-2.501-1.146-4.967-2.277-7.437-3.409-0.095 0.042-0.188 0.082-0.279 0.124-1.346 0.617-2.693 1.235-4.039 1.852-1.004 0.461-2.008 0.921-3.013 1.38-0.031 0.014-0.064 0.023-0.095 0.034z" clip-path="url(#clipPath2345)" style="fill:#ffffff"/><path transform="matrix(.35278 0 0 -.35278 218.06 44.342)" d="m0 0c0.041-0.01 0.085-0.015 0.122-0.032 1.561-0.715 3.121-1.431 4.682-2.146 0.609-0.28 1.218-0.558 1.828-0.837 0.056-0.026 0.112-0.055 0.174-0.085v-1.503c-0.062 0.024-0.112 0.041-0.159 0.062-2.136 0.929-4.272 1.858-6.41 2.785-0.108 0.048-0.186 0.115-0.237 0.219z" clip-path="url(#clipPath2357)" style="fill:#ffffff"/><path transform="matrix(.35278 0 0 -.35278 220.89 45.967)" d="m0 0v1.506c2.257 1.035 4.518 2.071 6.792 3.114 9e-3 -0.044 0.02-0.075 0.02-0.104v-1.333c0-0.167-0.085-0.267-0.233-0.331-0.456-0.196-0.911-0.396-1.366-0.595-1.681-0.73-3.361-1.46-5.043-2.191-0.051-0.022-0.105-0.041-0.17-0.066" clip-path="url(#clipPath2351)" style="fill:#ffffff"/></g></svg>
