<?xml version="1.0" encoding="UTF-8" standalone="no"?>
<!-- Created with Inkscape (http://www.inkscape.org/) -->

<svg
   width="4.5998383mm"
   height="2.9704323mm"
   viewBox="0 0 4.5998383 2.9704323"
   version="1.1"
   id="svg5"
   xml:space="preserve"
   xmlns:inkscape="http://www.inkscape.org/namespaces/inkscape"
   xmlns:sodipodi="http://sodipodi.sourceforge.net/DTD/sodipodi-0.dtd"
   xmlns="http://www.w3.org/2000/svg"
   xmlns:svg="http://www.w3.org/2000/svg"><sodipodi:namedview
     id="namedview7"
     pagecolor="#505050"
     bordercolor="#eeeeee"
     borderopacity="1"
     inkscape:showpageshadow="0"
     inkscape:pageopacity="0"
     inkscape:pagecheckerboard="0"
     inkscape:deskcolor="#505050"
     inkscape:document-units="mm"
     showgrid="false" /><defs
     id="defs2" /><g
     inkscape:label="Layer 1"
     inkscape:groupmode="layer"
     id="layer1"
     transform="translate(-138.00267,-25.245425)"><path
       d="m 140.30253,27.721614 c 0.54539,0 0.99095,-0.445911 0.9906,-0.992011 -3.5e-4,-0.54222 -0.44556,-0.988131 -0.98707,-0.988836 -0.5461,-0.0011 -0.99378,0.444147 -0.99413,0.988483 -3.5e-4,0.5461 0.44521,0.992364 0.9906,0.992364 m -0.0374,0.494242 c -0.37042,-0.0011 -0.7419,-0.129117 -1.09044,-0.334434 -0.42616,-0.250825 -0.78599,-0.578908 -1.10102,-0.958144 -0.0931,-0.112183 -0.0952,-0.267758 -0.003,-0.379236 0.38241,-0.462845 0.8255,-0.851253 1.37724,-1.102078 0.33408,-0.152047 0.68404,-0.226131 1.05234,-0.185561 0.2928,0.0321 0.56656,0.128058 0.82514,0.2667 0.47272,0.252589 0.86431,0.60325 1.20439,1.01353 0.0952,0.115006 0.0977,0.271287 0.003,0.384528 -0.38347,0.458611 -0.82374,0.84702 -1.3716,1.099961 -0.27164,0.125236 -0.55704,0.194028 -0.89605,0.194734"
       style="fill:#333333;fill-opacity:1;fill-rule:nonzero;stroke:none;stroke-width:0.352778"
       id="path1234" /><path
       d="m 140.30218,27.437063 c -0.39405,0 -0.70626,-0.313972 -0.70556,-0.709436 7.1e-4,-0.390172 0.31504,-0.702381 0.70627,-0.702381 0.39405,0 0.70661,0.314325 0.70555,0.709436 -7e-4,0.390878 -0.31468,0.702381 -0.70626,0.702381"
       style="fill:#333333;fill-opacity:1;fill-rule:nonzero;stroke:none;stroke-width:0.352778"
       id="path1238" /></g></svg>
