<?xml version="1.0" encoding="UTF-8" standalone="no"?>
<!-- Created with Inkscape (http://www.inkscape.org/) -->

<svg
   width="39.340714mm"
   height="39.340706mm"
   viewBox="0 0 39.340714 39.340706"
   version="1.1"
   id="svg5"
   xml:space="preserve"
   xmlns:inkscape="http://www.inkscape.org/namespaces/inkscape"
   xmlns:sodipodi="http://sodipodi.sourceforge.net/DTD/sodipodi-0.dtd"
   xmlns="http://www.w3.org/2000/svg"
   xmlns:svg="http://www.w3.org/2000/svg"><sodipodi:namedview
     id="namedview7"
     pagecolor="#505050"
     bordercolor="#eeeeee"
     borderopacity="1"
     inkscape:showpageshadow="0"
     inkscape:pageopacity="0"
     inkscape:pagecheckerboard="0"
     inkscape:deskcolor="#505050"
     inkscape:document-units="mm"
     showgrid="false" /><defs
     id="defs2"><clipPath
       clipPathUnits="userSpaceOnUse"
       id="clipPath3602"><path
         d="M -669.5454,195.07271 H 696.45462 V -474.92728 H -669.5454 Z"
         id="path3604"
         style="stroke-width:0.999998" /></clipPath><clipPath
       clipPathUnits="userSpaceOnUse"
       id="clipPath3608"><path
         d="M -673.4141,209.5683 H 692.58588 V -460.43169 H -673.4141 Z"
         id="path3610"
         style="stroke-width:0.999998" /></clipPath><clipPath
       clipPathUnits="userSpaceOnUse"
       id="clipPath3614"><path
         d="M -689.2368,195.1308 H 676.76316 v -670 H -689.2368 Z"
         id="path3616"
         style="stroke-width:0.999998" /></clipPath><clipPath
       clipPathUnits="userSpaceOnUse"
       id="clipPath3620"><path
         d="M -713.814,202.1527 H 652.18596 v -670 H -713.814 Z"
         id="path3622"
         style="stroke-width:0.999998" /></clipPath><clipPath
       clipPathUnits="userSpaceOnUse"
       id="clipPath3626"><path
         d="M -659.38179,215.97701 H 706.61816 V -454.02298 H -659.38179 Z"
         id="path3628"
         style="stroke-width:0.999998" /></clipPath><clipPath
       clipPathUnits="userSpaceOnUse"
       id="clipPath3632"><path
         d="M -670.85637,213.6454 H 695.14358 V -456.35459 H -670.85637 Z"
         id="path3634"
         style="stroke-width:0.999998" /></clipPath><clipPath
       clipPathUnits="userSpaceOnUse"
       id="clipPath3638"><path
         d="M -665.13379,214.44281 H 700.86616 V -455.55718 H -665.13379 Z"
         id="path3640"
         style="stroke-width:0.999998" /></clipPath><clipPath
       clipPathUnits="userSpaceOnUse"
       id="clipPath3644"><path
         d="M -700.75439,215.6049 H 665.24557 V -454.39509 H -700.75439 Z"
         id="path3646"
         style="stroke-width:0.999998" /></clipPath><clipPath
       clipPathUnits="userSpaceOnUse"
       id="clipPath3650"><path
         d="M -667.38229,222.39249 H 698.61767 V -447.6075 H -667.38229 Z"
         id="path3652"
         style="stroke-width:0.999998" /></clipPath><clipPath
       clipPathUnits="userSpaceOnUse"
       id="clipPath3656"><path
         d="M -691.0034,228.394 H 674.99655 V -441.60599 H -691.0034 Z"
         id="path3658"
         style="stroke-width:0.999998" /></clipPath><clipPath
       clipPathUnits="userSpaceOnUse"
       id="clipPath3662"><path
         d="M -684.72999,193.5517 H 681.26996 V -476.44829 H -684.72999 Z"
         id="path3664"
         style="stroke-width:0.999998" /></clipPath><clipPath
       clipPathUnits="userSpaceOnUse"
       id="clipPath3668"><path
         d="M -702.60739,225.41692 H 663.39256 v -670 H -702.60739 Z"
         id="path3670"
         style="stroke-width:0.999998" /></clipPath><clipPath
       clipPathUnits="userSpaceOnUse"
       id="clipPath3674"><path
         d="M -704.8022,224.2646 H 661.19775 V -445.73539 H -704.8022 Z"
         id="path3676"
         style="stroke-width:0.999998" /></clipPath><clipPath
       clipPathUnits="userSpaceOnUse"
       id="clipPath3680"><path
         d="M -669.17721,225.3344 H 696.82277 V -444.66559 H -669.17721 Z"
         id="path3682"
         style="stroke-width:0.999998" /></clipPath><clipPath
       clipPathUnits="userSpaceOnUse"
       id="clipPath3686"><path
         d="M -728.6831,207.3022 H 637.31685 V -462.69779 H -728.6831 Z"
         id="path3688"
         style="stroke-width:0.999998" /></clipPath><clipPath
       clipPathUnits="userSpaceOnUse"
       id="clipPath3692"><path
         d="M -739.41799,207.3022 H 626.58196 V -462.69779 H -739.41799 Z"
         id="path3694"
         style="stroke-width:0.999998" /></clipPath></defs><g
     inkscape:label="Layer 1"
     inkscape:groupmode="layer"
     id="layer1"
     transform="translate(-83.255816,-118.26235)"><path
       d="m 0,0 c 0,-30.794 -24.964,-55.758 -55.758,-55.758 -30.795,0 -55.759,24.964 -55.759,55.758 0,30.795 24.964,55.759 55.759,55.759 C -24.964,55.759 0,30.795 0,0"
       style="fill:#222222;fill-opacity:1;fill-rule:nonzero;stroke:none"
       id="path1090"
       transform="matrix(0.35277777,0,0,-0.35277777,122.59654,137.93288)"
       clip-path="url(#clipPath3692)" /><path
       d="m 0,0 c 0,-24.866 -20.158,-45.023 -45.023,-45.023 -24.867,0 -45.024,20.157 -45.024,45.023 0,24.866 20.157,45.024 45.024,45.024 C -20.158,45.024 0,24.866 0,0"
       style="fill:#ffffff;fill-opacity:1;fill-rule:nonzero;stroke:none"
       id="path1094"
       transform="matrix(0.35277777,0,0,-0.35277777,118.80951,137.93288)"
       clip-path="url(#clipPath3686)" /><g
       id="g3710"><path
         d="m 0,0 c -4.672,0.318 -8.406,0.813 -11.266,1.317 1.386,-1.979 3.571,-3.356 6.099,-3.666 L 3.036,-3.354 C 1.962,-2.393 0.93,-1.275 0,0"
         style="fill:#e72c01;fill-opacity:1;fill-rule:nonzero;stroke:none"
         id="path1098"
         transform="matrix(0.35277777,0,0,-0.35277777,97.817145,144.29424)"
         clip-path="url(#clipPath3680)" /><path
         d="m 0,0 c 0.057,-0.266 0.108,-0.524 0.148,-0.768 0.304,-1.846 0.311,-4.015 0.039,-6.346 2.471,1.148 4.361,3.426 4.908,6.285 L 5.373,0.622 C 3.533,0.392 1.745,0.187 0,0"
         style="fill:#e72c01;fill-opacity:1;fill-rule:nonzero;stroke:none"
         id="path1102"
         transform="matrix(0.35277777,0,0,-0.35277777,110.38486,143.91684)"
         clip-path="url(#clipPath3674)" /><path
         d="m 0,0 c -0.354,2.15 -1.534,5.397 -2.876,7.259 -0.851,1.18 -1.758,2.202 -2.818,3.139 0.003,-10e-4 0.005,-10e-4 0.007,-0.002 -4.966,4.948 -9.915,9.844 -10.712,19.441 -11.067,2.573 -16.42,21.984 -16.42,21.984 -1.266,-7.364 -0.23,-15.55 2.55,-22.109 -3.518,-3.216 -10.619,-10.876 -10.582,-20.263 2.009,7.557 16.826,13.84 19.784,15.026 -0.955,-0.814 -3.899,-3.005 -3.812,-3.1 1.469,-1.614 3.105,-3.062 4.92,-4.368 -2.481,0.493 -5.021,0.697 -7.615,0.578 3.522,-3.284 5.806,-8.237 4.814,-12.949 -0.073,-0.345 -0.197,-0.731 -0.518,-0.877 -0.246,-0.112 -0.532,-0.046 -0.791,0.027 -4.568,1.286 -8.58,4.442 -10.905,8.579 -0.616,-1.91 0.978,-6.484 1.874,-8.281 3.733,-7.482 11.243,-9.857 11.949,-9.461 4.313,2.422 6.541,6.911 6.545,10.602 C -4.074,1.872 -3.099,-4.556 -1.51,-12.555 0.07,-7.687 0.513,-3.117 0,0"
         style="fill:#00182e;fill-opacity:1;fill-rule:nonzero;stroke:none"
         id="path1106"
         transform="matrix(0.35277777,0,0,-0.35277777,109.61058,144.32335)"
         clip-path="url(#clipPath3668)" /><path
         d="M 0,0 C 1.208,-0.242 2.399,-0.026 3.399,0.524 3.398,0.522 3.396,0.521 3.395,0.519 c 1.53,0.812 2.819,2.341 3.197,4.226 0.651,3.245 -1.328,6.378 -4.42,6.997 -1.887,0.379 -3.753,-0.269 -5.068,-1.568 1.104,0.585 2.389,0.81 3.685,0.55 C 1.918,10.498 2.896,9.934 3.655,9.154 3.152,9.47 2.588,9.707 1.971,9.831 -0.744,10.375 -3.386,8.615 -3.93,5.9 -4.474,3.186 -2.714,0.544 0,0"
         style="fill:#00182e;fill-opacity:1;fill-rule:nonzero;stroke:none"
         id="path1110"
         transform="matrix(0.35277777,0,0,-0.35277777,103.30383,133.08201)"
         clip-path="url(#clipPath3662)" /><path
         d="m 0,0 c -2.617,0 -4.739,-2.122 -4.739,-4.739 0,-2.617 2.122,-4.739 4.739,-4.739 2.617,0 4.739,2.122 4.739,4.739 C 4.739,-2.122 2.617,0 0,0"
         style="fill:#00182e;fill-opacity:1;fill-rule:nonzero;stroke:none"
         id="path1114"
         transform="matrix(0.35277777,0,0,-0.35277777,105.51695,145.3736)"
         clip-path="url(#clipPath3656)" /><path
         d="M 0,0 C -0.013,0.026 -0.54,1.127 -1.081,2.659 -5.175,2.575 -8.484,2.7 -11.047,2.898 l 0.05,-0.459 c 0.062,-0.573 0.181,-1.129 0.348,-1.663 3.725,-0.482 7.331,-0.831 10.807,-1.07 C 0.106,-0.195 0.05,-0.101 0,0"
         style="fill:#a4e624;fill-opacity:1;fill-rule:nonzero;stroke:none"
         id="path1118"
         transform="matrix(0.35277777,0,0,-0.35277777,97.183945,143.2564)"
         clip-path="url(#clipPath3650)" /><path
         d="m 0,0 c 0.309,-0.375 0.611,-0.759 0.903,-1.165 0.906,-1.256 1.692,-2.911 2.283,-4.543 2.555,0.39 4.868,0.811 6.916,1.23 l 1.334,6.971 C 7.41,1.537 3.605,0.713 0,0"
         style="fill:#a4e624;fill-opacity:1;fill-rule:nonzero;stroke:none"
         id="path1122"
         transform="matrix(0.35277777,0,0,-0.35277777,108.95688,140.86189)"
         clip-path="url(#clipPath3644)" /><path
         d="m 0,0 c -0.015,-0.002 -0.03,-0.004 -0.044,-0.005 -0.506,-0.737 -0.857,-1.45 -1.039,-2.13 -0.083,-0.314 -0.232,-0.593 -0.42,-0.837 0.657,0.012 1.306,0.03 1.953,0.049 C 0.209,-1.953 0.034,-0.945 0,0"
         style="fill:#357a03;fill-opacity:1;fill-rule:nonzero;stroke:none"
         id="path1126"
         transform="matrix(0.35277777,0,0,-0.35277777,96.390725,140.45193)"
         clip-path="url(#clipPath3638)" /><path
         d="m 0,0 c 0.942,-1.245 2.065,-2.346 3.323,-3.262 1.123,0.087 2.233,0.18 3.32,0.285 C 6.381,-1.667 5.867,-0.349 5.125,0.899 3.327,0.556 1.617,0.257 0,0"
         style="fill:#357a03;fill-opacity:1;fill-rule:nonzero;stroke:none"
         id="path1130"
         transform="matrix(0.35277777,0,0,-0.35277777,98.409525,140.17062)"
         clip-path="url(#clipPath3632)" /><path
         d="M 0,0 C -0.001,0.333 0.007,0.665 0.021,0.994 -1.269,0.906 -2.453,0.848 -3.518,0.816 l 0.244,-2.237 c 1.281,-0.03 2.54,-0.04 3.789,-0.043 C 0.194,-1.06 0.002,-0.55 0,0"
         style="fill:#357a03;fill-opacity:1;fill-rule:nonzero;stroke:none"
         id="path1134"
         transform="matrix(0.35277777,0,0,-0.35277777,94.361548,140.99316)"
         clip-path="url(#clipPath3626)" /><path
         d="m 0,0 c -7.241,-2.568 -13.835,-4.64 -19.811,-6.312 1.386,-1.674 2.928,-3.214 4.5,-4.781 6.18,1.416 11.062,2.938 14.453,4.134 l 0.786,4.105 C 0.113,-1.887 0.129,-0.926 0,0"
         style="fill:#357a03;fill-opacity:1;fill-rule:nonzero;stroke:none"
         id="path1138"
         transform="matrix(0.35277777,0,0,-0.35277777,113.56402,136.11625)"
         clip-path="url(#clipPath3620)" /><path
         d="m 0,0 c -0.021,-0.011 -0.042,-0.018 -0.063,-0.028 -0.193,-0.103 -0.391,-0.198 -0.594,-0.283 0.386,-4.525 1.797,-7.903 3.732,-10.774 9.507,2.875 16.344,5.914 20.078,7.756 C 22,-1.628 20.248,-0.326 18.114,0.227 L 3.772,3.943 C 2.985,2.288 1.659,0.88 0,0"
         style="fill:#00182e;fill-opacity:1;fill-rule:nonzero;stroke:none"
         id="path1142"
         transform="matrix(0.35277777,0,0,-0.35277777,104.89373,133.63908)"
         clip-path="url(#clipPath3614)" /><path
         d="m 0,0 c -1.226,3.3 -2.054,6.913 -2.43,10.596 l -2.761,0.716 c -5.918,1.534 -11.541,-3.327 -10.88,-9.403 l 2.159,-19.871 c 1.353,0.107 2.681,0.232 3.995,0.365 C -8.734,-9.767 -3.519,-3.462 0,0"
         style="fill:#00182e;fill-opacity:1;fill-rule:nonzero;stroke:none"
         id="path1146"
         transform="matrix(0.35277777,0,0,-0.35277777,97.947045,133.61859)"
         clip-path="url(#clipPath3602)" /><path
         d="m 0,0 c -0.063,0.059 -0.122,0.122 -0.178,0.187 -0.605,0.635 -1.583,0.744 -2.31,0.252 -0.228,-0.154 -0.451,-0.309 -0.669,-0.463 -0.583,-0.412 -0.846,-1.122 -0.719,-1.8 1.654,0.261 3.269,0.539 4.844,0.832 C 0.664,-0.65 0.341,-0.318 0,0"
         style="fill:#00182e;fill-opacity:1;fill-rule:nonzero;stroke:none"
         id="path1150"
         transform="matrix(0.35277777,0,0,-0.35277777,99.311825,138.73231)"
         clip-path="url(#clipPath3608)" /></g></g></svg>
