<svg width="7.5424mm" height="7.5424mm" version="1.1" viewBox="0 0 7.5424 7.5424" xml:space="preserve" xmlns="http://www.w3.org/2000/svg">
  <defs>
    <clipPath id="clipPath7177">
      <path d="m-36.808 181.96h1366v-670h-1366z"/>
    </clipPath>
  </defs>
  <g transform="translate(-15.422 -106.59)">
    <path transform="matrix(.35278 0 0 -.35278 19.193 106.59)" d="m0 0c-5.894 0-10.69-4.796-10.69-10.69s4.796-10.69 10.69-10.69c5.895 0 10.69 4.796 10.69 10.69s-4.795 10.69-10.69 10.69m0-3.118c2.825 0 5.123-2.298 5.123-5.122 0-2.825-2.298-5.123-5.123-5.123-2.824 0-5.122 2.298-5.122 5.123 0 2.824 2.298 5.122 5.122 5.122m0-16.481c-2.911 0-5.492 1.41-7.119 3.576 1.783 0.857 4.327 1.77 7.119 1.77s5.337-0.913 7.119-1.77c-1.627-2.166-4.208-3.576-7.119-3.576" clip-path="url(#clipPath7177)" style="fill:#ffffff"/>
  </g>
</svg>
