<svg version="1.1" viewBox="0 0 150 150" xml:space="preserve" xmlns="http://www.w3.org/2000/svg"><defs><clipPath id="clipPath3602"><path d="m-669.55 195.07h1366v-670h-1366z"/></clipPath><clipPath id="clipPath3608"><path d="m-673.41 209.57h1366v-670h-1366z"/></clipPath><clipPath id="clipPath3614"><path d="m-689.24 195.13h1366v-670h-1366z"/></clipPath><clipPath id="clipPath3620"><path d="m-713.81 202.15h1366v-670h-1366z"/></clipPath><clipPath id="clipPath3626"><path d="m-659.38 215.98h1366v-670h-1366z"/></clipPath><clipPath id="clipPath3632"><path d="m-670.86 213.65h1366v-670h-1366z"/></clipPath><clipPath id="clipPath3638"><path d="m-665.13 214.44h1366v-670h-1366z"/></clipPath><clipPath id="clipPath3644"><path d="m-700.75 215.6h1366v-670h-1366z"/></clipPath><clipPath id="clipPath3650"><path d="m-667.38 222.39h1366v-670h-1366z"/></clipPath><clipPath id="clipPath3656"><path d="m-691 228.39h1366v-670h-1366z"/></clipPath><clipPath id="clipPath3662"><path d="m-684.73 193.55h1366v-670h-1366z"/></clipPath><clipPath id="clipPath3668"><path d="m-702.61 225.42h1366v-670h-1366z"/></clipPath><clipPath id="clipPath3674"><path d="m-704.8 224.26h1366v-670h-1366z"/></clipPath><clipPath id="clipPath3680"><path d="m-669.18 225.33h1366v-670h-1366z"/></clipPath></defs><g transform="translate(-83.256 -118.26)"><path transform="matrix(2.1518 0 0 -2.1518 127.09 235.33)" d="m0 0c-4.672 0.318-8.406 0.813-11.266 1.317 1.386-1.979 3.571-3.356 6.099-3.666l8.203-1.005c-1.074 0.961-2.106 2.079-3.036 3.354" clip-path="url(#clipPath3680)" style="fill:#e72c01"/><path transform="matrix(2.1518 0 0 -2.1518 203.75 233.03)" d="m0 0c0.057-0.266 0.108-0.524 0.148-0.768 0.304-1.846 0.311-4.015 0.039-6.346 2.471 1.148 4.361 3.426 4.908 6.285l0.278 1.451c-1.84-0.23-3.628-0.435-5.373-0.622" clip-path="url(#clipPath3674)" style="fill:#e72c01"/><path transform="matrix(2.1518 0 0 -2.1518 199.03 235.51)" d="m0 0c-0.354 2.15-1.534 5.397-2.876 7.259-0.851 1.18-1.758 2.202-2.818 3.139 3e-3 -1e-3 5e-3 -1e-3 7e-3 -2e-3 -4.966 4.948-9.915 9.844-10.712 19.441-11.067 2.573-16.42 21.984-16.42 21.984-1.266-7.364-0.23-15.55 2.55-22.109-3.518-3.216-10.619-10.876-10.582-20.263 2.009 7.557 16.826 13.84 19.784 15.026-0.955-0.814-3.899-3.005-3.812-3.1 1.469-1.614 3.105-3.062 4.92-4.368-2.481 0.493-5.021 0.697-7.615 0.578 3.522-3.284 5.806-8.237 4.814-12.949-0.073-0.345-0.197-0.731-0.518-0.877-0.246-0.112-0.532-0.046-0.791 0.027-4.568 1.286-8.58 4.442-10.905 8.579-0.616-1.91 0.978-6.484 1.874-8.281 3.733-7.482 11.243-9.857 11.949-9.461 4.313 2.422 6.541 6.911 6.545 10.602 10.532-3.353 11.507-9.781 13.096-17.78 1.58 4.868 2.023 9.438 1.51 12.555" clip-path="url(#clipPath3668)" style="fill:#00182e"/><path transform="matrix(2.1518 0 0 -2.1518 160.56 166.94)" d="m0 0c1.208-0.242 2.399-0.026 3.399 0.524-1e-3 -2e-3 -3e-3 -3e-3 -4e-3 -5e-3 1.53 0.812 2.819 2.341 3.197 4.226 0.651 3.245-1.328 6.378-4.42 6.997-1.887 0.379-3.753-0.269-5.068-1.568 1.104 0.585 2.389 0.81 3.685 0.55 1.129-0.226 2.107-0.79 2.866-1.57-0.503 0.316-1.067 0.553-1.684 0.677-2.715 0.544-5.357-1.216-5.901-3.931-0.544-2.714 1.216-5.356 3.93-5.9" clip-path="url(#clipPath3662)" style="fill:#00182e"/><path transform="matrix(2.1518 0 0 -2.1518 174.06 241.92)" d="m0 0c-2.617 0-4.739-2.122-4.739-4.739s2.122-4.739 4.739-4.739 4.739 2.122 4.739 4.739-2.122 4.739-4.739 4.739" clip-path="url(#clipPath3656)" style="fill:#00182e"/><path transform="matrix(2.1518 0 0 -2.1518 123.23 229)" d="m0 0c-0.013 0.026-0.54 1.127-1.081 2.659-4.094-0.084-7.403 0.041-9.966 0.239l0.05-0.459c0.062-0.573 0.181-1.129 0.348-1.663 3.725-0.482 7.331-0.831 10.807-1.07-0.052 0.099-0.108 0.193-0.158 0.294" clip-path="url(#clipPath3650)" style="fill:#a4e624"/><path transform="matrix(2.1518 0 0 -2.1518 195.04 214.4)" d="m0 0c0.309-0.375 0.611-0.759 0.903-1.165 0.906-1.256 1.692-2.911 2.283-4.543 2.555 0.39 4.868 0.811 6.916 1.23l1.334 6.971c-4.026-0.956-7.831-1.78-11.436-2.493" clip-path="url(#clipPath3644)" style="fill:#a4e624"/><path transform="matrix(2.1518 0 0 -2.1518 118.39 211.89)" d="m0 0c-0.015-2e-3 -0.03-4e-3 -0.044-5e-3 -0.506-0.737-0.857-1.45-1.039-2.13-0.083-0.314-0.232-0.593-0.42-0.837 0.657 0.012 1.306 0.03 1.953 0.049-0.241 0.97-0.416 1.978-0.45 2.923" clip-path="url(#clipPath3638)" style="fill:#357a03"/><path transform="matrix(2.1518 0 0 -2.1518 130.71 210.18)" d="m0 0c0.942-1.245 2.065-2.346 3.323-3.262 1.123 0.087 2.233 0.18 3.32 0.285-0.262 1.31-0.776 2.628-1.518 3.876-1.798-0.343-3.508-0.642-5.125-0.899" clip-path="url(#clipPath3632)" style="fill:#357a03"/><path transform="matrix(2.1518 0 0 -2.1518 106.01 215.2)" d="m0 0c-1e-3 0.333 7e-3 0.665 0.021 0.994-1.29-0.088-2.474-0.146-3.539-0.178l0.244-2.237c1.281-0.03 2.54-0.04 3.789-0.043-0.321 0.404-0.513 0.914-0.515 1.464" clip-path="url(#clipPath3626)" style="fill:#357a03"/><path transform="matrix(2.1518 0 0 -2.1518 223.14 185.45)" d="m0 0c-7.241-2.568-13.835-4.64-19.811-6.312 1.386-1.674 2.928-3.214 4.5-4.781 6.18 1.416 11.062 2.938 14.453 4.134l0.786 4.105c0.185 0.967 0.201 1.928 0.072 2.854" clip-path="url(#clipPath3620)" style="fill:#357a03"/><path transform="matrix(2.1518 0 0 -2.1518 170.26 170.34)" d="m0 0c-0.021-0.011-0.042-0.018-0.063-0.028-0.193-0.103-0.391-0.198-0.594-0.283 0.386-4.525 1.797-7.903 3.732-10.774 9.507 2.875 16.344 5.914 20.078 7.756-1.153 1.701-2.905 3.003-5.039 3.556l-14.342 3.716c-0.787-1.655-2.113-3.063-3.772-3.943" clip-path="url(#clipPath3614)" style="fill:#00182e"/><path transform="matrix(2.1518 0 0 -2.1518 127.88 170.21)" d="m0 0c-1.226 3.3-2.054 6.913-2.43 10.596l-2.761 0.716c-5.918 1.534-11.541-3.327-10.88-9.403l2.159-19.871c1.353 0.107 2.681 0.232 3.995 0.365 1.183 7.83 6.398 14.135 9.917 17.597" clip-path="url(#clipPath3602)" style="fill:#00182e"/><path transform="matrix(2.1518 0 0 -2.1518 136.21 201.41)" d="m0 0c-0.063 0.059-0.122 0.122-0.178 0.187-0.605 0.635-1.583 0.744-2.31 0.252-0.228-0.154-0.451-0.309-0.669-0.463-0.583-0.412-0.846-1.122-0.719-1.8 1.654 0.261 3.269 0.539 4.844 0.832-0.304 0.342-0.627 0.674-0.968 0.992" clip-path="url(#clipPath3608)" style="fill:#00182e"/></g></svg>
